<?xml version="1.0" encoding="utf-8"?>
<!-- Generator: Adobe Illustrator 19.0.0, SVG Export Plug-In . SVG Version: 6.00 Build 0)  -->
<svg version="1.1" id="Layer_1" xmlns="http://www.w3.org/2000/svg" xmlns:xlink="http://www.w3.org/1999/xlink" x="0px" y="0px"
	 viewBox="-253 346 104.5 101" style="enable-background:new -253 346 104.5 101;" xml:space="preserve">
<style type="text/css">
	.st0{fill:#FFFFFF;}
	.st1{fill:#6399FF;}
</style>
<circle id="XMLID_1_" class="st0" cx="-200.8" cy="396.5" r="43.6"/>
<path class="st1" d="M-220.7,411.8v-25.2c0-0.3,0-0.6,0.2-0.9c0.1-0.3,0.3-0.5,0.5-0.8l8.6-8.2c0.2-0.2,0.5-0.4,0.7-0.5
	c0.3-0.1,0.6-0.1,0.9-0.1h16.5c2.8,0,5,2.2,5,5v2.7v0.8v11.6c-0.3,0-0.6-0.1-0.9-0.1h-0.4h-0.4c-0.2,0-0.5,0-0.7,0v-12.4v-2.7
	c0-1.5-1.2-2.7-2.7-2.7H-209v3.9c0,2.8-2.3,5-5,5h-4.2v24.5c0,1.5,1.2,2.7,2.7,2.7h15.5v2.3v0h-15.5
	C-218.4,416.9-220.7,414.6-220.7,411.8z M-188.4,416.9h7.6v-2.5c0-0.5-0.2-1-0.6-1.3c-2.2-1.8-4.6-3-5.1-3.3c0,0-0.1-0.1-0.1-0.1
	v-3.5c0.4-0.3,0.7-0.8,0.7-1.3v-3.6c0-1.8-1.4-3.2-3.2-3.2h-0.4h-0.4c-1.8,0-3.2,1.4-3.2,3.2v3.6c0,0.6,0.3,1,0.7,1.3v3.5
	c0,0,0,0.1-0.1,0.1c-0.5,0.2-2.9,1.4-5.1,3.3c-0.4,0.3-0.6,0.8-0.6,1.3v2.5h7.6l0.8-3.4c-1.5-2.1,0.1-2.2,0.4-2.2l0,0l0,0
	c0.3,0,1.9,0.1,0.4,2.2L-188.4,416.9z"/>
</svg>
