<?xml version="1.0" encoding="utf-8"?>
<!-- Generator: Adobe Illustrator 19.0.0, SVG Export Plug-In . SVG Version: 6.00 Build 0)  -->
<svg version="1.1" id="Layer_1" xmlns="http://www.w3.org/2000/svg" xmlns:xlink="http://www.w3.org/1999/xlink" x="0px" y="0px"
	 viewBox="0 0 104.5 101" style="enable-background:new 0 0 104.5 101;" xml:space="preserve">
<style type="text/css">
	.st0{fill:#FFFFFF;}
	.st1{fill:#6399FF;}
</style>
<circle id="XMLID_1_" class="st0" cx="51.6" cy="51.4" r="43.6"/>
<path id="Page-1_4_" class="st1" d="M47.7,46.9c0,0.5-0.4,0.8-0.8,0.8c-0.5,0-0.8-0.4-0.8-0.8c0-0.5,0.4-0.8,0.8-0.8
	C47.3,46,47.7,46.4,47.7,46.9L47.7,46.9z M51.4,46c-0.5,0-0.8,0.4-0.8,0.8c0,0.5,0.4,0.8,0.8,0.8s0.8-0.4,0.8-0.8
	C52.2,46.4,51.9,46,51.4,46L51.4,46z M56,46c-0.5,0-0.8,0.4-0.8,0.8c0,0.5,0.4,0.8,0.8,0.8c0.5,0,0.8-0.4,0.8-0.8
	C56.8,46.4,56.4,46,56,46L56,46z M60.6,46c-0.5,0-0.8,0.4-0.8,0.8c0,0.5,0.4,0.8,0.8,0.8c0.5,0,0.8-0.4,0.8-0.8
	C61.4,46.4,61,46,60.6,46L60.6,46z M65.1,46c-0.5,0-0.8,0.4-0.8,0.8c0,0.5,0.4,0.8,0.8,0.8c0.5,0,0.8-0.4,0.8-0.8
	C66,46.4,65.6,46,65.1,46L65.1,46z M37.7,50.6c-0.5,0-0.8,0.4-0.8,0.8s0.4,0.8,0.8,0.8c0.5,0,0.8-0.4,0.8-0.8S38.1,50.6,37.7,50.6
	L37.7,50.6z M42.3,50.6c-0.5,0-0.8,0.4-0.8,0.8s0.4,0.8,0.8,0.8c0.5,0,0.8-0.4,0.8-0.8S42.7,50.6,42.3,50.6L42.3,50.6z M46.8,50.6
	c-0.5,0-0.8,0.4-0.8,0.8s0.4,0.8,0.8,0.8c0.5,0,0.8-0.4,0.8-0.8S47.3,50.6,46.8,50.6L46.8,50.6z M51.4,50.6c-0.5,0-0.8,0.4-0.8,0.8
	s0.4,0.8,0.8,0.8s0.8-0.4,0.8-0.8S51.9,50.6,51.4,50.6L51.4,50.6z M56,50.6c-0.5,0-0.8,0.4-0.8,0.8s0.4,0.8,0.8,0.8
	c0.5,0,0.8-0.4,0.8-0.8S56.4,50.6,56,50.6L56,50.6z M60.6,50.6c-0.5,0-0.8,0.4-0.8,0.8s0.4,0.8,0.8,0.8c0.5,0,0.8-0.4,0.8-0.8
	S61,50.6,60.6,50.6L60.6,50.6z M65.1,50.6c-0.5,0-0.8,0.4-0.8,0.8s0.4,0.8,0.8,0.8c0.5,0,0.8-0.4,0.8-0.8S65.6,50.6,65.1,50.6
	L65.1,50.6z M37.7,55.2c-0.5,0-0.8,0.4-0.8,0.8c0,0.5,0.4,0.8,0.8,0.8c0.5,0,0.8-0.4,0.8-0.8C38.5,55.5,38.1,55.2,37.7,55.2
	L37.7,55.2z M42.3,55.2c-0.5,0-0.8,0.4-0.8,0.8c0,0.5,0.4,0.8,0.8,0.8c0.5,0,0.8-0.4,0.8-0.8C43.1,55.5,42.7,55.2,42.3,55.2
	L42.3,55.2z M46.8,55.2c-0.5,0-0.8,0.4-0.8,0.8c0,0.5,0.4,0.8,0.8,0.8c0.5,0,0.8-0.4,0.8-0.8C47.7,55.5,47.3,55.2,46.8,55.2
	L46.8,55.2z M51.4,55.2c-0.5,0-0.8,0.4-0.8,0.8c0,0.5,0.4,0.8,0.8,0.8s0.8-0.4,0.8-0.8C52.2,55.5,51.9,55.2,51.4,55.2L51.4,55.2z
	 M56,55.2c-0.5,0-0.8,0.4-0.8,0.8c0,0.5,0.4,0.8,0.8,0.8c0.5,0,0.8-0.4,0.8-0.8C56.8,55.5,56.4,55.2,56,55.2L56,55.2z M60.6,55.2
	c-0.5,0-0.8,0.4-0.8,0.8c0,0.5,0.4,0.8,0.8,0.8c0.5,0,0.8-0.4,0.8-0.8C61.4,55.5,61,55.2,60.6,55.2L60.6,55.2z M65.1,55.2
	c-0.5,0-0.8,0.4-0.8,0.8c0,0.5,0.4,0.8,0.8,0.8c0.5,0,0.8-0.4,0.8-0.8C66,55.5,65.6,55.2,65.1,55.2L65.1,55.2z M37.7,59.7
	c-0.5,0-0.8,0.4-0.8,0.8c0,0.5,0.4,0.8,0.8,0.8c0.5,0,0.8-0.4,0.8-0.8C38.5,60.1,38.1,59.7,37.7,59.7L37.7,59.7z M42.3,59.7
	c-0.5,0-0.8,0.4-0.8,0.8c0,0.5,0.4,0.8,0.8,0.8c0.5,0,0.8-0.4,0.8-0.8C43.1,60.1,42.7,59.7,42.3,59.7L42.3,59.7z M46.8,59.7
	c-0.5,0-0.8,0.4-0.8,0.8c0,0.5,0.4,0.8,0.8,0.8c0.5,0,0.8-0.4,0.8-0.8C47.7,60.1,47.3,59.7,46.8,59.7L46.8,59.7z M51.4,59.7
	c-0.5,0-0.8,0.4-0.8,0.8c0,0.5,0.4,0.8,0.8,0.8s0.8-0.4,0.8-0.8C52.2,60.1,51.9,59.7,51.4,59.7L51.4,59.7z M56,59.7
	c-0.5,0-0.8,0.4-0.8,0.8c0,0.5,0.4,0.8,0.8,0.8c0.5,0,0.8-0.4,0.8-0.8C56.8,60.1,56.4,59.7,56,59.7L56,59.7z M60.6,59.7
	c-0.5,0-0.8,0.4-0.8,0.8c0,0.5,0.4,0.8,0.8,0.8c0.5,0,0.8-0.4,0.8-0.8C61.4,60.1,61,59.7,60.6,59.7L60.6,59.7z M65.1,59.7
	c-0.5,0-0.8,0.4-0.8,0.8c0,0.5,0.4,0.8,0.8,0.8c0.5,0,0.8-0.4,0.8-0.8C66,60.1,65.6,59.7,65.1,59.7L65.1,59.7z M37.7,64.3
	c-0.5,0-0.8,0.4-0.8,0.8c0,0.5,0.4,0.8,0.8,0.8c0.5,0,0.8-0.4,0.8-0.8C38.5,64.7,38.1,64.3,37.7,64.3L37.7,64.3z M42.3,64.3
	c-0.5,0-0.8,0.4-0.8,0.8c0,0.5,0.4,0.8,0.8,0.8c0.5,0,0.8-0.4,0.8-0.8C43.1,64.7,42.7,64.3,42.3,64.3L42.3,64.3z M46.8,64.3
	c-0.5,0-0.8,0.4-0.8,0.8c0,0.5,0.4,0.8,0.8,0.8c0.5,0,0.8-0.4,0.8-0.8C47.7,64.7,47.3,64.3,46.8,64.3L46.8,64.3z M51.4,64.3
	c-0.5,0-0.8,0.4-0.8,0.8c0,0.5,0.4,0.8,0.8,0.8s0.8-0.4,0.8-0.8C52.2,64.7,51.9,64.3,51.4,64.3L51.4,64.3z M56,64.3
	c-0.5,0-0.8,0.4-0.8,0.8c0,0.5,0.4,0.8,0.8,0.8c0.5,0,0.8-0.4,0.8-0.8C56.8,64.7,56.4,64.3,56,64.3L56,64.3z M70.1,39.5v26.8
	c0,2.1-1.5,3.9-3.3,3.9H36c-1.8,0-3.3-1.7-3.3-3.9V39.5c0-2.1,1.5-3.9,3.3-3.9h1.7v-0.8c0-1.2,0.9-2.1,2.1-2.1s2.1,0.9,2.1,2.1v0.8
	h7.5v-0.8c0-1.2,0.9-2.1,2.1-2.1s2.1,0.9,2.1,2.1v0.8H61v-0.8c0-1.2,0.9-2.1,2.1-2.1c1.2,0,2.1,0.9,2.1,2.1v0.8h1.7
	C68.6,35.6,70.1,37.4,70.1,39.5L70.1,39.5z M62.6,38.1c0,0.2,0.2,0.4,0.4,0.4s0.4-0.2,0.4-0.4v-3.3c0-0.2-0.2-0.4-0.4-0.4
	s-0.4,0.2-0.4,0.4V38.1z M51,38.1c0,0.2,0.2,0.4,0.4,0.4c0.2,0,0.4-0.2,0.4-0.4v-3.3c0-0.2-0.2-0.4-0.4-0.4c-0.2,0-0.4,0.2-0.4,0.4
	V38.1z M39.4,38.1c0,0.2,0.2,0.4,0.4,0.4s0.4-0.2,0.4-0.4v-3.3c0-0.2-0.2-0.4-0.4-0.4s-0.4,0.2-0.4,0.4V38.1z M34.4,39.5v2.4h34.1
	v-2.4c0-1.2-0.7-2.2-1.7-2.2h-1.7v0.8c0,1.2-0.9,2.1-2.1,2.1c-1.2,0-2.1-0.9-2.1-2.1v-0.8h-7.5v0.8c0,1.2-0.9,2.1-2.1,2.1
	s-2.1-0.9-2.1-2.1v-0.8h-7.5v0.8c0,1.2-0.9,2.1-2.1,2.1s-2.1-0.9-2.1-2.1v-0.8H36C35.1,37.3,34.4,38.3,34.4,39.5L34.4,39.5z
	 M68.4,66.3V43.5H34.4v22.7c0,1.2,0.7,2.2,1.7,2.2h30.8C67.7,68.5,68.4,67.5,68.4,66.3L68.4,66.3z"/>
</svg>
