<?xml version="1.0" encoding="utf-8"?>
<!-- Generator: Adobe Illustrator 19.0.0, SVG Export Plug-In . SVG Version: 6.00 Build 0)  -->
<svg version="1.1" id="Layer_1" xmlns="http://www.w3.org/2000/svg" xmlns:xlink="http://www.w3.org/1999/xlink" x="0px" y="0px"
	 viewBox="-253 346 104.5 101" style="enable-background:new -253 346 104.5 101;" xml:space="preserve">
<style type="text/css">
	.st0{fill:#FFFFFF;}
	.st1{fill:#6399FF;}
	.st2{fill:#FFFFFF;stroke:#6399FF;stroke-width:2;}
	.st3{fill:#6399FF;stroke:#6399FF;}
</style>
<circle id="XMLID_1_" class="st0" cx="-201.4" cy="397.4" r="43.6"/>
<g id="XMLID_11_">
	<g id="Page-1_5_" transform="translate(34.000000, 32.000000)">
		<path id="Fill-1_3_" class="st1" d="M-235.7,370.3c3.3,0,6.1-2.7,6.1-6.1c0-2.6-1.6-4.8-4-5.7l-12.5-4.8c0,0,4.9,12.8,5,13
			C-240.2,368.9-238,370.3-235.7,370.3L-235.7,370.3z M-242.7,357.2l8.5,3.2c1.5,0.6,2.5,2.1,2.5,3.7c0,2.2-1.8,4-4,4
			c-1.6,0-3-0.9-3.6-2.3L-242.7,357.2z"/>
		<path id="Fill-2_1_" class="st1" d="M-236.7,342.1v8.1h2v-6c10.6,0.5,19.1,9.3,19.1,20.1c0,11.1-9.1,20.1-20.1,20.1
			s-20.1-9-20.1-20.1c0-5.6,2.3-10.6,5.9-14.2l-1.4-1.5c-4,4-6.5,9.5-6.5,15.6c0,12.3,9.9,22.1,22.1,22.1s22.1-9.9,22.1-22.1
			c0-12.1-9.7-21.9-21.8-22.1C-235.4,342.1-236.7,342.1-236.7,342.1z"/>
	</g>
	<circle id="Oval-4" class="st2" cx="-188" cy="411.7" r="8.9"/>
	<path id="Fill-4_1_" class="st3" d="M-187.7,415.2c-0.8,0-1.5-0.7-1.5-1.5h-1c0,1.2,0.9,2.2,2,2.4v1.5h1v-1.5c1.1-0.2,2-1.2,2-2.4
		c0-1.4-2-2.3-2.3-2.4c-0.7-0.3-1.7-1-1.7-1.5c0-0.8,0.7-1.5,1.5-1.5s1.5,0.7,1.5,1.5h1c0-1.2-0.9-2.2-2-2.4v-1.5h-1v1.5
		c-1.1,0.2-2,1.2-2,2.4c0,1.4,2,2.3,2.3,2.4c0.7,0.3,1.7,1,1.7,1.5C-186.3,414.5-186.9,415.2-187.7,415.2L-187.7,415.2z"/>
</g>
</svg>
