<?xml version="1.0" encoding="utf-8"?>
<!-- Generator: Adobe Illustrator 19.0.0, SVG Export Plug-In . SVG Version: 6.00 Build 0)  -->
<svg version="1.1" id="Layer_1" xmlns="http://www.w3.org/2000/svg" xmlns:xlink="http://www.w3.org/1999/xlink" x="0px" y="0px"
	 viewBox="-253 346 104.5 101" style="enable-background:new -253 346 104.5 101;" xml:space="preserve">
<style type="text/css">
	.st0{fill:#FFFFFF;}
	.st1{fill:#6399FF;stroke:#6399FF;stroke-width:0.5;stroke-miterlimit:10;}
</style>
<circle id="XMLID_1_" class="st0" cx="-200.8" cy="396.5" r="43.6"/>
<g>
	<g>
		<path class="st1" d="M-203.6,417.5l-0.6-2.9c-0.5-0.1-0.9-0.2-1.4-0.4l-1.6,2.2l-4.1-2.1l1-2.9c-0.4-0.3-0.7-0.7-1-1l-2.6,1.1
			l-2.5-3.8l2.3-2.1c-0.1-0.4-0.2-0.8-0.3-1.3l-2.8-0.3l-0.2-4.5l3-0.6c0.1-0.5,0.2-0.9,0.3-1.3l-2.3-1.7l2.1-4.1l2.9,1
			c0,0,0-0.1,0.1-0.1c0.3-0.3,0.6-0.6,0.9-0.9l-1.1-2.5l3.8-2.5l2,2.2c0.4-0.1,0.9-0.3,1.4-0.4l0.3-2.7l4.5-0.2l0.6,2.9
			c0.5,0.1,1,0.2,1.4,0.4l1.6-2.2l4.1,2.1l-1,2.9c0.3,0.3,0.7,0.6,1,1l2.6-1.2l2.5,3.8l-2.3,2.1c0.1,0.4,0.2,0.9,0.3,1.3l2.8,0.3
			l0.2,4.5l-3.1,0.6c-0.1,0.6-0.3,1.2-0.5,1.9l-0.2,0.7l-3.8-3.7v-0.2c0.1-0.6,0.1-1.2,0.1-1.7c-0.2-4.5-3.9-8.1-8.4-8.1
			c-0.1,0-0.3,0-0.4,0c-2.2,0.1-4.3,1.1-5.8,2.8s-2.3,3.9-2.1,6.1c0.2,4.7,4.2,8.3,8.8,8c0.3,0,0.7-0.1,1-0.1h0.2l3.6,3.8l-0.6,0.2
			c-0.7,0.3-1.3,0.4-2,0.6l-0.3,2.7L-203.6,417.5z M-206,413.2l0.3,0.1c0.6,0.2,1.3,0.4,1.9,0.5l0.3,0.1l0.6,2.8l3-0.2l0.3-2.6
			l0.3-0.1c0.5-0.1,1-0.2,1.5-0.4l-2.3-2.4c-0.3,0.1-0.6,0.1-0.9,0.1c-0.2,0-0.3,0-0.5,0c-4.9,0-9-3.9-9.3-8.9
			c-0.1-2.5,0.7-4.9,2.4-6.8c1.7-1.9,3.9-3,6.4-3.1c0.2,0,0.3,0,0.5,0c4.9,0,9,3.9,9.3,8.9c0,0.6,0,1.1-0.1,1.7l2.5,2.4
			c0.1-0.5,0.2-0.9,0.3-1.4l0.1-0.3l2.9-0.6l-0.2-3l-2.7-0.3l-0.1-0.3c-0.1-0.6-0.3-1.2-0.5-1.8l-0.1-0.3l2.2-2l-1.6-2.5l-2.5,1.1
			l-0.2-0.3c-0.4-0.5-0.9-0.9-1.3-1.4l-0.2-0.2l0.9-2.7l-2.7-1.4l-1.5,2.1l-0.3-0.1c-0.6-0.2-1.2-0.4-1.9-0.5l-0.3-0.1l-0.6-2.8
			l-3,0.2l-0.3,2.6l-0.3,0.1c-0.7,0.1-1.3,0.3-1.9,0.5l-0.3,0.1l-1.9-2.1l-2.5,1.6l1.1,2.4l-0.3,0.2c-0.4,0.4-0.8,0.7-1.1,1.1
			c0,0-0.1,0.1-0.1,0.2c0,0.1-0.1,0.1-0.1,0.2l-0.2,0.2l-2.8-0.9l-1.4,2.7l2.2,1.6l-0.1,0.3c-0.2,0.5-0.3,1.1-0.5,1.8l-0.1,0.3
			l-2.9,0.6l0.2,3l2.7,0.3l0.1,0.3c0.1,0.7,0.3,1.3,0.5,1.8l0.1,0.3l-2.2,2l1.6,2.5l2.5-1.1l0.2,0.3c0.4,0.5,0.8,0.9,1.3,1.4
			l0.2,0.2l-0.9,2.7l2.7,1.4L-206,413.2z"/>
		<path class="st1" d="M-186.4,421c-0.6,0-1.2-0.3-1.6-0.6c-1.6-1.6-3.9-4-6.2-6.2c-2.2-2.2-4.5-4.5-6.1-6.1
			c-0.4,0.1-0.8,0.1-1.3,0.1c-1.8,0-3.4-0.7-4.6-1.9c-1.9-1.9-2.4-4.7-1.5-7.1l0.3-0.6l3.9,3.9c0.1,0.1,0.3,0.1,0.4,0l2.3-2.3
			c0.1-0.1,0.1-0.1,0.1-0.2c0-0.1,0-0.1-0.1-0.2l-3.9-3.9l0.6-0.3c0.8-0.3,1.6-0.5,2.5-0.5c1.8,0,3.4,0.7,4.7,1.9
			c1.6,1.6,2.2,3.8,1.8,5.9c1.6,1.6,4,3.8,6.2,5.9c2.3,2.2,4.8,4.5,6.4,6.1c0.4,0.4,0.7,1.2,0.6,1.8c-0.3,2.2-2.1,4-4.3,4.3
			C-186.2,420.8-186.3,421-186.4,421z M-200,407l0.2,0.2c1.6,1.7,4,4,6.3,6.3c2.3,2.2,4.6,4.6,6.2,6.2c0.2,0.2,0.7,0.4,1,0.4
			c1.8-0.3,3.3-1.8,3.5-3.5c0.1-0.4-0.2-0.9-0.4-1c-1.7-1.6-4.1-3.9-6.4-6.1c-2.3-2.2-4.8-4.5-6.4-6.1l-0.2-0.2l0.1-0.3
			c0.5-1.9-0.1-3.9-1.5-5.3c-1.1-1.1-2.5-1.7-4-1.7c-0.5,0-1,0.1-1.5,0.2l2.9,2.9c0.2,0.2,0.3,0.5,0.3,0.8s-0.1,0.6-0.3,0.8
			l-2.3,2.3c-0.4,0.4-1.2,0.5-1.7,0l-2.9-2.9c-0.5,1.9,0,4,1.5,5.5c1.1,1.1,2.5,1.7,4,1.7c0.4,0,0.9-0.1,1.3-0.2L-200,407z"/>
	</g>
	<g>
		<rect x="-216" y="384.2" class="st1" width="5.3" height="0.9"/>
		<rect x="-219.4" y="384.2" class="st1" width="2.3" height="0.9"/>
		<rect x="-223" y="386.3" class="st1" width="12.3" height="0.9"/>
		<g>
			<g>
				<g>
					<rect x="-218.5" y="381.8" class="st1" width="1.1" height="0.9"/>
					<rect x="-215.8" y="381.8" class="st1" width="2.4" height="0.9"/>
					<rect x="-211.8" y="381.8" class="st1" width="1.1" height="0.9"/>
				</g>
			</g>
		</g>
	</g>
	<path class="st1" d="M-188.3,388.2h-2.1c-0.5,0-0.9-0.4-0.9-0.9V386c-0.4-0.2-0.8-0.4-1.2-0.6l-1.2,0.7c-0.4,0.2-1,0.1-1.3-0.3
		l-1-1.8c-0.1-0.2-0.2-0.5-0.1-0.7c0.1-0.2,0.2-0.4,0.4-0.6l1-0.6c-0.1-0.3-0.1-0.6-0.1-0.9c0-0.2,0-0.3,0-0.5l-1.2-0.7
		c-0.2-0.1-0.4-0.3-0.4-0.6c-0.1-0.2,0-0.5,0.1-0.7l1-1.8c0.2-0.4,0.8-0.6,1.3-0.3l1,0.6c0.4-0.3,0.7-0.5,1.2-0.7v-1.4
		c0-0.5,0.4-0.9,0.9-0.9h2.1c0.5,0,0.9,0.4,0.9,0.9v1.2c0.4,0.2,0.8,0.4,1.2,0.6l1.2-0.7c0.4-0.2,1-0.1,1.3,0.3l1,1.8
		c0.3,0.4,0.1,1-0.3,1.3l-1,0.6c0.1,0.3,0.1,0.6,0.1,0.9c0,0.2,0,0.3,0,0.5l1.2,0.7c0.2,0.1,0.4,0.3,0.4,0.6c0.1,0.2,0,0.5-0.1,0.7
		l-1,1.8c-0.2,0.3-0.5,0.5-0.8,0.5l0,0c-0.2,0-0.3,0-0.5-0.1l-1-0.6c-0.4,0.3-0.7,0.5-1.2,0.7v1.4
		C-187.3,387.8-187.7,388.2-188.3,388.2z M-192.4,384.3l0.3,0.2c0.4,0.4,0.9,0.6,1.5,0.8l0.3,0.1v1.9h2.1l0,0v-1.5l0,0l-0.1-0.4
		l0.4-0.1c0.5-0.2,1-0.5,1.4-0.9l0.2-0.2l1.6,0.9l1.1-1.8l-1.3-0.8l0,0l-0.3-0.1l0.1-0.4c0-0.3,0.1-0.5,0.1-0.7c0-0.3,0-0.7-0.1-1
		l-0.1-0.3l1.6-0.9l-1-1.8l-1.4,0.8l0,0l-0.3,0.2l-0.3-0.2c-0.4-0.4-0.9-0.6-1.5-0.8l-0.3-0.1v-1.9h-2.1v1.6l0,0l0.1,0.4l-0.4,0.1
		c-0.5,0.2-1,0.5-1.4,0.9l-0.2,0.2l-1.6-0.9l-1.1,1.8l1.4,0.8l0.4,0.1l-0.1,0.4c0,0.2-0.1,0.5-0.1,0.7c0,0.3,0,0.7,0.1,1l0.1,0.3
		l-1.6,0.9l1,1.8l1.4-0.8l0,0L-192.4,384.3z M-189.5,383.8c-1.5,0-2.7-1.2-2.7-2.7s1.2-2.7,2.7-2.7s2.7,1.2,2.7,2.7
		S-188,383.8-189.5,383.8z M-189.5,379.3c-1,0-1.8,0.8-1.8,1.8s0.8,1.8,1.8,1.8s1.8-0.8,1.8-1.8
		C-187.7,380.2-188.5,379.3-189.5,379.3z"/>
	<path class="st1" d="M-183.6,400.5l-0.9-0.1l0.2-1.3l0.9,0.1L-183.6,400.5z M-183.2,397.8l-0.9-0.1l0.2-1.5l0.9,0.1L-183.2,397.8z
		 M-182.8,394.8l-0.9-0.1l0.2-1.5l0.9,0.1L-182.8,394.8z M-182.4,391.8l-0.9-0.1l0.2-1.5l0.9,0.1L-182.4,391.8z M-182,388.8
		l-0.9-0.1l0.2-1.5l0.9,0.1L-182,388.8z M-181.7,385.8l-0.9-0.1l0.2-1.5l0.9,0.1L-181.7,385.8z M-207.4,385.7l-0.6-0.7l1.2-0.9
		l0.6,0.7L-207.4,385.7z M-205.1,383.8l-0.6-0.7l1.2-0.9l0.6,0.7L-205.1,383.8z M-181.3,382.8l-0.9-0.1l0.2-1.5l0.9,0.1
		L-181.3,382.8z M-202.7,382l-0.6-0.7l1.2-0.9l0.6,0.7L-202.7,382z M-200.3,380l-0.6-0.7l1.2-0.9l0.6,0.7L-200.3,380z M-180.9,379.8
		l-0.9-0.1l0.1-0.9c0-0.1-0.1-0.3-0.1-0.4l0.9-0.3c0.1,0.2,0.1,0.4,0.2,0.5v0.1L-180.9,379.8z M-198,378.2l-0.6-0.7l1.2-0.9l0.6,0.7
		L-198,378.2z M-182.4,377c-0.2-0.4-0.5-0.8-0.8-1.2l0.7-0.6c0.3,0.4,0.6,0.8,0.9,1.3L-182.4,377z M-195.6,376.3l-0.6-0.7l1.2-0.9
		l0.6,0.7L-195.6,376.3z M-184.2,374.8c-0.4-0.3-0.8-0.6-1.2-0.8l0.5-0.8c0.5,0.3,0.9,0.6,1.3,0.9L-184.2,374.8z M-193.3,374.3
		l-0.6-0.7l1.2-0.9l0.6,0.7L-193.3,374.3z M-186.7,373.5c-0.4-0.2-0.9-0.3-1.4-0.4l0.2-0.9c0.5,0.1,1,0.2,1.5,0.4L-186.7,373.5z
		 M-190.9,373l-0.1-0.9c0.5-0.1,1-0.1,1.5-0.1h0.1v0.9h-0.1C-190,373-190.5,373-190.9,373z"/>
	<g>
		<rect x="-181.9" y="406.2" class="st1" width="3.4" height="0.9"/>
		<rect x="-180.7" y="404.8" class="st1" width="0.9" height="3.4"/>
	</g>
	<g>
		<rect x="-216.1" y="416.8" class="st1" width="3.4" height="0.9"/>
		<rect x="-214.9" y="415.5" class="st1" width="0.9" height="3.4"/>
	</g>
	<g>
		<rect x="-212.6" y="377.3" class="st1" width="3.4" height="0.9"/>
		<rect x="-211.4" y="376" class="st1" width="0.9" height="3.4"/>
	</g>
	<rect x="-196.6" y="419.2" class="st1" width="4.2" height="0.9"/>
</g>
</svg>
