<?xml version="1.0" encoding="utf-8"?>
<!-- Generator: Adobe Illustrator 19.0.0, SVG Export Plug-In . SVG Version: 6.00 Build 0)  -->
<svg version="1.1" id="Layer_1" xmlns="http://www.w3.org/2000/svg" xmlns:xlink="http://www.w3.org/1999/xlink" x="0px" y="0px"
	 viewBox="-49 -28 104.5 101" style="enable-background:new -49 -28 104.5 101;" xml:space="preserve">
<style type="text/css">
	.st0{fill:#FFFFFF;}
	.st1{fill:#6399FF;}
	.st2{filter:url(#Adobe_OpacityMaskFilter);}
	.st3{mask:url(#mask-2_2_);}
</style>
<circle id="XMLID_1_" class="st0" cx="2.6" cy="23.4" r="43.6"/>
<g id="Page-1_2_">
	<g id="Website_Desktop_1360" transform="translate(-281.000000, -2219.000000)">
		<g id="Contract-management" transform="translate(283.000000, 2221.000000)">
			<g id="Stroke-1">
				<path class="st1" d="M5.6,38.6h-16.7c-1.7,0-3.1-1.4-3.1-3.1v-33c0-1.7,1.4-3.1,3.1-3.1h24.4c1.7,0,3.1,1.4,3.1,3.1v18.9
					c0,0.5-0.4,0.9-0.9,0.9s-0.9-0.4-0.9-0.9V2.4c0-0.7-0.5-1.2-1.2-1.2h-24.4c-0.7,0-1.2,0.5-1.2,1.2v33c0,0.7,0.5,1.2,1.2,1.2H5.6
					c0.5,0,0.9,0.4,0.9,0.9S6.1,38.6,5.6,38.6z"/>
			</g>
			<g id="Page-1_3_" transform="translate(37.500000, 42.000000)">
				<g id="Group-3" transform="translate(0.000000, 0.451787)">
					<g id="Clip-2">
					</g>
					<defs>
						<filter id="Adobe_OpacityMaskFilter" filterUnits="userSpaceOnUse" x="-30.6" y="-19.3" width="17.3" height="18.5">
							<feColorMatrix  type="matrix" values="1 0 0 0 0  0 1 0 0 0  0 0 1 0 0  0 0 0 1 0"/>
						</filter>
					</defs>
					<mask maskUnits="userSpaceOnUse" x="-30.6" y="-19.3" width="17.3" height="18.5" id="mask-2_2_">
						<g class="st2">
							<polygon id="path-1_2_" class="st0" points="-13.3,-19.3 -30.6,-19.3 -30.6,-0.8 -13.3,-0.8 							"/>
						</g>
					</mask>
					<g id="Fill-1" class="st3">
						<path class="st1" d="M-16.2-5.4l-2.1-0.7l-0.4,0.3C-19.1-5.5-19.5-5.2-20-5l-0.5,0.2l-0.4,2.2c-0.7,0.1-1.3,0.1-2.1,0
							l-0.4-2.2L-23.8-5c-0.5-0.2-1-0.5-1.4-0.8l-0.4-0.3l-2.1,0.7c-0.4-0.6-0.8-1.2-1-1.8l1.7-1.5l-0.1-0.5c0-0.2-0.1-0.5-0.1-0.8
							c0-0.3,0-0.6,0.1-0.8l0.1-0.5l-1.7-1.5c0.2-0.6,0.6-1.2,1-1.8l2.1,0.7l0.4-0.3c0.4-0.3,0.9-0.6,1.4-0.8l0.5-0.2l0.4-2.2
							c0.7-0.1,1.4-0.1,2.1,0l0.4,2.2L-20-15c0.5,0.2,1,0.5,1.4,0.8l0.4,0.3l2.1-0.7c0.4,0.6,0.8,1.2,1,1.8l-1.7,1.5l0.1,0.5
							c0,0.2,0.1,0.5,0.1,0.8c0,0.3,0,0.6-0.1,0.8l-0.1,0.5l1.7,1.5C-15.4-6.6-15.7-6-16.2-5.4 M-28.8-4c0.3,0.4,0.9,0.5,1.3,0.4
							l1.5-0.5c0.3,0.2,0.7,0.4,1,0.6l0.3,1.6c0.1,0.4,0.3,0.7,0.6,0.8C-23.9-1-23.8-1-23.7-1c0.6,0.1,1.2,0.2,1.7,0.2
							s1.1-0.1,1.7-0.2c0.2,0,0.3-0.1,0.4-0.2c0.3-0.2,0.5-0.5,0.6-0.8l0.3-1.6c0.4-0.2,0.7-0.4,1-0.6l1.5,0.5c0.5,0.2,1,0,1.3-0.3
							c0.8-0.9,1.4-1.9,1.7-3c0.2-0.5,0-1.1-0.4-1.4l-1.2-1.1c0-0.2,0-0.4,0-0.6c0-0.2,0-0.4,0-0.6l1.2-1.1c0.4-0.3,0.6-0.9,0.4-1.4
							c-0.4-1.1-0.9-2.1-1.7-3c-0.2-0.3-0.5-0.4-0.8-0.4l-1.8,0.5l-0.3,0.1c-0.3-0.2-0.7-0.4-1-0.6l-0.3-1.6
							c-0.1-0.4-0.3-0.7-0.6-0.8c-0.1-0.1-0.3-0.1-0.4-0.2c-1.1-0.2-2.3-0.2-3.4,0c-0.1,0-0.3,0.1-0.4,0.2c-0.3,0.2-0.5,0.5-0.6,0.8
							l-0.3,1.6c-0.4,0.2-0.7,0.4-1,0.6l-1.5-0.5c-0.5-0.2-1,0-1.3,0.3c-0.8,0.9-1.4,1.9-1.7,3c-0.2,0.5,0,1.1,0.4,1.4l1.2,1.1
							c0,0.2,0,0.4,0,0.6c0,0.2,0,0.4,0,0.6l-1.2,1.1c-0.4,0.3-0.5,0.8-0.4,1.3l0.8,1.6C-29.8-5.4-28.8-4-28.8-4"/>
					</g>
				</g>
				<g id="Fill-4">
					<path class="st1" d="M-21.9-7.3c-1.2,0-2.3-1-2.3-2.3s1-2.3,2.3-2.3s2.3,1,2.3,2.3S-20.7-7.3-21.9-7.3 M-21.9-13.4
						c-2.1,0-3.7,1.7-3.7,3.8s1.7,3.8,3.7,3.8s3.7-1.7,3.7-3.8S-19.9-13.4-21.9-13.4"/>
				</g>
			</g>
			<g id="Stroke-5">
				<path class="st1" d="M9,19.8H-6.9c-0.5,0-0.8-0.4-0.8-0.8s0.4-0.8,0.8-0.8H9c0.5,0,0.8,0.4,0.8,0.8S9.5,19.8,9,19.8z"/>
			</g>
			<g id="Stroke-5-Copy">
				<path class="st1" d="M9,7.9H-6.9c-0.5,0-0.8-0.4-0.8-0.8c0-0.5,0.4-0.8,0.8-0.8H9c0.5,0,0.8,0.4,0.8,0.8C9.9,7.6,9.5,7.9,9,7.9z
					"/>
			</g>
			<g id="Stroke-6-Copy">
				<path class="st1" d="M9,13.8H-6.9c-0.5,0-0.8-0.4-0.8-0.8c0-0.5,0.4-0.8,0.8-0.8H9c0.5,0,0.8,0.4,0.8,0.8
					C9.9,13.5,9.5,13.8,9,13.8z"/>
			</g>
			<g id="Page-1_1_" transform="translate(10.500000, 41.000000)">
				<g id="Fill-1_1_">
					<path class="st1" d="M-5.5-10h-6.6c0.2-0.7,0.4-1.4,0.6-2.1c0.5-0.3,0.9-0.6,1.3-0.7C-9.9-13-9.7-13-9.7-13c0,0,0,0,0,0
						c0,0,0.1,0.4-0.6,1.7c-0.2,0.3-0.1,0.5,0.1,0.7c0.3,0.2,0.5,0,1.1-0.7c0.4-0.5,1-1.2,1.4-1.5c0.3-0.2,0.5-0.2,0.6-0.2
						c0.1,0.1,0.2,0.4-0.1,1.1c-0.1,0.2,0,0.4,0.2,0.5c0.2,0.1,0.4,0,0.5-0.2c0.4-0.9,0.3-1.7-0.1-2c-0.2-0.2-0.7-0.4-1.5,0.2
						c-0.2,0.1-0.4,0.3-0.7,0.6c0-0.3-0.1-0.6-0.2-0.8c-0.4-0.5-1.2-0.2-1.5-0.1c-0.2,0.1-0.5,0.2-0.8,0.4c0.1-0.3,0.1-0.6,0.2-0.9
						c0-0.1,0-0.2,0.1-0.3c0.7-0.3,1.2-0.7,1.5-1.1c1.2-1.5,1-2.4,0.8-2.7c-0.2-0.3-0.5-0.5-0.8-0.5c-0.6,0-1.1,0.4-1.5,1.1
						c-0.3,0.5-0.5,1.5-0.8,2.7c-1,0.4-2.1,0.8-2.7,0.8c-0.2,0-0.4,0.2-0.4,0.4c0,0.2,0.2,0.4,0.4,0.4c0.6,0,1.5-0.3,2.4-0.6
						c-0.1,0.4-0.2,0.9-0.3,1.4c-1.1,0.8-2.2,1.8-2.7,2.6h-3c-0.1,0-0.3,0.1-0.3,0.3c0,0.1,0.1,0.3,0.3,0.3h2.7
						c-0.3,0.7-0.8,1.9-0.3,2.5c0.1,0.2,0.4,0.4,0.8,0.4c0.1,0,0.2,0,0.3,0c1-0.2,1.6-1.3,2.2-2.9h6.8c0.1,0,0.3-0.1,0.3-0.3
						C-5.2-9.9-5.3-10-5.5-10L-5.5-10z M-10.2-17.3C-10-17.8-9.7-18-9.5-18c0.1,0,0.1,0,0.1,0.1c0.1,0.2,0,0.8-0.8,1.9
						c-0.1,0.2-0.4,0.4-0.6,0.5C-10.6-16.3-10.4-17-10.2-17.3L-10.2-17.3z M-12.5-11.4c-0.1,0.5-0.3,0.9-0.4,1.4h-1
						C-13.6-10.4-13.1-10.9-12.5-11.4L-12.5-11.4z M-14.6-7.4c-0.2,0-0.2,0-0.2,0c-0.1-0.2,0.1-1.1,0.6-2.1h1.1
						C-13.5-8.3-14-7.5-14.6-7.4L-14.6-7.4z"/>
				</g>
				<g id="Fill-2">
					<path class="st1" d="M-18.1-11.2c0.1,0.1,0.1,0.1,0.2,0.1c0.1,0,0.1,0,0.2-0.1l0.6-0.6l0.6,0.6c0.1,0.1,0.1,0.1,0.2,0.1
						c0.1,0,0.1,0,0.2-0.1c0.1-0.1,0.1-0.3,0-0.4l-0.6-0.6l0.6-0.6c0.1-0.1,0.1-0.3,0-0.4s-0.3-0.1-0.4,0l-0.6,0.6l-0.6-0.6
						c-0.1-0.1-0.3-0.1-0.4,0s-0.1,0.3,0,0.4l0.6,0.6l-0.6,0.6C-18.2-11.5-18.2-11.3-18.1-11.2L-18.1-11.2z"/>
				</g>
			</g>
		</g>
	</g>
</g>
</svg>
