<?xml version="1.0" encoding="utf-8"?>
<!-- Generator: Adobe Illustrator 19.0.0, SVG Export Plug-In . SVG Version: 6.00 Build 0)  -->
<svg version="1.1" id="Layer_1" xmlns="http://www.w3.org/2000/svg" xmlns:xlink="http://www.w3.org/1999/xlink" x="0px" y="0px"
	 viewBox="-49 -28 104.5 101" style="enable-background:new -49 -28 104.5 101;" xml:space="preserve">
<style type="text/css">
	.st0{fill:#FFFFFF;}
	.st1{fill:#6399FF;}
</style>
<circle id="XMLID_1_" class="st0" cx="2.6" cy="23.4" r="43.6"/>
<g id="Page-1_4_">
	<g id="Website_Desktop_1360_1_" transform="translate(-642.000000, -2216.000000)">
		<g id="Page-1" transform="translate(642.000000, 2216.000000)">
			<path id="Fill-1_2_" class="st1" d="M19.2,44.7l-6.6-2.2l-24.1-24.1c-0.3-0.3-0.3-0.9,0-1.2c0.3-0.3,0.9-0.3,1.2,0L13.5,41l3,1
				l-1-3L-8.2,15.4c-0.3-0.3-0.3-0.9,0-1.2c0.3-0.3,0.9-0.3,1.2,0L17,38.1L19.2,44.7z"/>
			<path id="Fill-2_1_" class="st1" d="M-16.2,13.5c-0.2,0-0.4-0.1-0.6-0.2l-1.6-1.6c-0.2-0.2-0.3-0.4-0.3-0.6
				c0-0.2,0.1-0.4,0.2-0.6l3.2-3.2c0.2-0.2,0.4-0.2,0.6-0.2l0,0c0.2,0,0.4,0.1,0.6,0.2l1.6,1.6c0.3,0.3,0.3,0.9,0,1.2
				c-0.3,0.3-0.9,0.3-1.2,0l-1-1l-2,2l1,1c0.3,0.3,0.3,0.9,0,1.2C-15.8,13.4-16,13.5-16.2,13.5L-16.2,13.5z"/>
			<path id="Fill-3" class="st1" d="M-12.8,17c-0.2,0-0.5-0.1-0.6-0.3c-0.3-0.3-0.3-0.9,0-1.2l3.4-3.2c0.3-0.3,0.9-0.3,1.2,0
				c0.3,0.3,0.3,0.9,0,1.2l-3.4,3.2C-12.4,16.9-12.6,17-12.8,17L-12.8,17z"/>
			<path id="Fill-4_1_" class="st1" d="M-14.6,15.2c-0.2,0-0.5-0.1-0.6-0.3c-0.3-0.3-0.3-0.9,0-1.2l3.4-3.2c0.3-0.3,0.9-0.3,1.2,0
				c0.3,0.3,0.3,0.9,0,1.2L-14,15C-14.2,15.2-14.4,15.2-14.6,15.2L-14.6,15.2z"/>
			<path id="Fill-5" class="st1" d="M-0.6,31.4l-11.1,11.1l-5.4-5.4L-6,26c0.3-0.3,0.9-0.3,1.3,0c0.3,0.3,0.3,0.9,0,1.3l-1.4,1.4
				l0.8,0.8c0.3,0.3,0.3,0.9,0,1.3C-5.5,30.9-5.7,31-5.9,31c-0.2,0-0.5-0.1-0.6-0.3l-0.8-0.8l-1.5,1.5l0.8,0.8
				c0.3,0.3,0.3,0.9,0,1.3c-0.2,0.2-0.4,0.3-0.6,0.3c-0.2,0-0.5-0.1-0.6-0.3l-0.8-0.8l-1.6,1.6l0.8,0.8c0.3,0.3,0.3,0.9,0,1.3
				c-0.2,0.2-0.4,0.3-0.6,0.3s-0.5-0.1-0.6-0.3l-0.8-0.8l-1.6,1.6l2.9,2.9l9.8-9.8c0.3-0.3,0.9-0.3,1.3,0C-0.3,30.5-0.3,31-0.6,31.4
				L-0.6,31.4z"/>
			<path id="Fill-6" class="st1" d="M5.4,25c-0.2,0-0.5-0.1-0.6-0.3c-0.3-0.3-0.3-0.9,0-1.3l10-9.9l-2.9-2.9l-9.8,9.7
				c-0.3,0.3-0.9,0.3-1.3,0c-0.3-0.3-0.3-0.9,0-1.3l11-11l5.4,5.4L6,24.8C5.8,24.9,5.6,25,5.4,25L5.4,25z"/>
			<path id="Fill-7" class="st1" d="M5.1,13.9L-6.6,2.2L-6,1.6C-5.1,0.8-4,0.3-2.8,0.3c1.2,0,2.3,0.5,3.1,1.3l5.2,5.2
				C5.7,7,6.9,7.1,7.6,7.1l0.1,0c0.8-0.2,1.6-0.2,2.3,0l1.4,0.4L5.1,13.9z M-4,2.3l9,9l2.5-2.5l-0.1,0C6.2,8.8,4.9,8.8,4.2,8L-1,2.9
				c-0.5-0.5-1.2-0.8-1.8-0.8C-3.2,2.1-3.6,2.2-4,2.3L-4,2.3z"/>
			<path id="Fill-8" class="st1" d="M23.2,32L11.5,20.3l6.3-6.3l0.4,1.4c0.2,0.8,0.3,1.6,0,2.4l0,0c0,0.7,0.1,1.9,0.3,2.2l5.2,5.2
				c1.7,1.7,1.7,4.5,0,6.2L23.2,32z M14.1,20.3l9.1,9.1c0.5-1,0.3-2.2-0.5-3l-5.2-5.2c-0.7-0.7-0.8-2-0.8-3.3l0-0.1L14.1,20.3z"/>
			<path id="Fill-9" class="st1" d="M11.1,14c-0.3-0.3-0.3-0.8,0-1.1c0.3-0.3,0.8-0.3,1.1,0c0.3,0.3,0.3,0.8,0,1.1
				C11.9,14.4,11.4,14.4,11.1,14L11.1,14z"/>
		</g>
	</g>
</g>
</svg>
