<?xml version="1.0" encoding="utf-8"?>
<!-- Generator: Adobe Illustrator 19.0.0, SVG Export Plug-In . SVG Version: 6.00 Build 0)  -->
<svg version="1.1" id="Layer_1" xmlns="http://www.w3.org/2000/svg" xmlns:xlink="http://www.w3.org/1999/xlink" x="0px" y="0px"
	 viewBox="-49 -28 104.5 101" style="enable-background:new -49 -28 104.5 101;" xml:space="preserve">
<style type="text/css">
	.st0{fill:#FFFFFF;}
	.st1{fill:#6399FF;}
</style>
<circle id="XMLID_1_" class="st0" cx="2.6" cy="23.4" r="43.6"/>
<path id="Page-1" class="st1" d="M12.2,11.4H14C7.4,4.9-3.2,5.1-9.6,11.7c-0.3,0.3-0.8,0.3-1.1,0c-0.3-0.3-0.3-0.8,0-1.1
	c7-7.2,18.5-7.3,25.8-0.4V8.4c0-0.4,0.3-0.8,0.8-0.8l0,0c0.4,0,0.8,0.3,0.8,0.8l0,3.7c0,0.4-0.3,0.8-0.8,0.8l-3.7,0l0,0
	c-0.4,0-0.8-0.3-0.8-0.8C11.4,11.7,11.8,11.4,12.2,11.4L12.2,11.4z M14.3,35.1c-3.1,3.2-7.3,5-11.8,5H2.3c-4.3,0-8.5-1.7-11.6-4.7
	h1.8c0.4,0,0.8-0.4,0.8-0.8c0-0.4-0.4-0.8-0.8-0.8l0,0l-3.7,0c-0.4,0-0.8,0.4-0.8,0.8l0,3.7c0,0.4,0.4,0.8,0.8,0.8l0,0
	c0.4,0,0.8-0.4,0.8-0.8v-1.8c3.4,3.3,7.9,5.2,12.7,5.2h0.2c4.9,0,9.5-2,12.9-5.5c0.3-0.3,0.3-0.8,0-1.1
	C15.1,34.8,14.6,34.8,14.3,35.1L14.3,35.1z M-12.3,22.3c-0.2-0.1-0.3-0.3-0.3-0.5v-3.1c0-1.1,0.9-2,2-2h0.7c1.1,0,2,0.9,2,2v3.1
	c0,0.2-0.1,0.4-0.3,0.5c-0.2,0.1-0.4,0.4-0.4,0.6v3c0,0.4,0.2,0.7,0.5,0.8c0.4,0.2,2.4,1.2,4.3,2.8c0.2,0.1,0.3,0.4,0.3,0.6v2.1
	c0,0.4,0.4,0.8,0.8,0.8c0.4,0,0.8-0.4,0.8-0.8v-2.1c0-0.7-0.3-1.3-0.8-1.8c-1.7-1.4-3.4-2.4-4.3-2.8v-2.3c0.4-0.4,0.6-1,0.6-1.5
	v-3.1c0-2-1.6-3.6-3.6-3.6h-0.7c-2,0-3.6,1.6-3.6,3.6v3.1c0,0.6,0.2,1.1,0.6,1.5v2.3c-0.8,0.4-2.6,1.4-4.3,2.7
	c-0.5,0.5-0.8,1.1-0.8,1.8v2.1c0,0.4,0.4,0.8,0.8,0.8c0.4,0,0.8-0.4,0.8-0.8v-2.1c0-0.2,0.1-0.5,0.3-0.6c1.9-1.5,3.9-2.6,4.3-2.8
	c0.3-0.1,0.5-0.5,0.5-0.8v-3C-11.9,22.7-12.1,22.5-12.3,22.3L-12.3,22.3z M22.9,28.4c-1.7-1.4-3.4-2.4-4.3-2.8v-2.3
	c0.4-0.4,0.6-1,0.6-1.5v-3.1c0-2-1.6-3.6-3.6-3.6h-0.7c-2,0-3.6,1.6-3.6,3.6v3.1c0,0.6,0.2,1.1,0.6,1.5v2.3C11.3,26,9.5,27,7.9,28.4
	C7.3,28.8,7,29.5,7,30.1v2.1C7,32.7,7.4,33,7.8,33c0.4,0,0.8-0.4,0.8-0.8v-2.1c0-0.2,0.1-0.5,0.3-0.6c1.9-1.5,3.9-2.6,4.3-2.8
	c0.3-0.1,0.5-0.5,0.5-0.8v-3c0-0.3-0.1-0.5-0.4-0.6C13.1,22.2,13,22,13,21.8v-3.1c0-1.1,0.9-2,2-2h0.7c1.1,0,2,0.9,2,2v3.1
	c0,0.2-0.1,0.4-0.3,0.5c-0.2,0.1-0.4,0.4-0.4,0.6v3c0,0.4,0.2,0.7,0.5,0.8c0.4,0.2,2.4,1.2,4.3,2.8c0.2,0.1,0.3,0.4,0.3,0.6v2.1
	c0,0.4,0.4,0.8,0.8,0.8c0.4,0,0.8-0.4,0.8-0.8v-2.1C23.8,29.5,23.5,28.8,22.9,28.4L22.9,28.4z"/>
</svg>
