<svg xmlns="http://www.w3.org/2000/svg" width="48" height="48" viewBox="0 0 48 48">
    <g fill="none" fill-rule="evenodd">
        <path fill="#FFF" d="M-40-12h1366v72H-40z"/>
        <path fill="#4382F9" fill-rule="nonzero" d="M15.162 32.218c.058-.146.152-.41.2-.56l1.646-5.119a2.227 2.227 0 0 1 2.105-1.526l.265.001a2309.216 2309.216 0 0 0 6.975.028c3.963.01 6.815 0 7.03-.022 2.888-.305 5.186-2.594 5.186-5.795 0-1.174-.425-2.626-1.201-3.711-.955-1.335-2.362-2.083-4.38-2.083H15.292a1.716 1.716 0 1 1 0-3.431h17.696c3.144 0 5.582 1.296 7.17 3.518C41.37 15.212 42 17.364 42 19.225c0 5.042-3.697 8.726-8.257 9.207-.419.045-2.887.052-7.399.04a2309.275 2309.275 0 0 1-6.245-.023c-.023 0-.513 1.42-1.47 4.259-.07.22-.191.556-.277.772l-.737 1.865a2.274 2.274 0 0 1-2.08 1.415H7.978a1.955 1.955 0 0 1-1.874-2.587l4.968-15.148a2.236 2.236 0 0 1 2.094-1.517h20.421a1.716 1.716 0 0 1 0 3.431H14.055L9.99 33.33h4.732l.439-1.111z"/>
    </g>
</svg>
