<?xml version="1.0" encoding="utf-8"?>
<!-- Generator: Adobe Illustrator 19.0.0, SVG Export Plug-In . SVG Version: 6.00 Build 0)  -->
<svg version="1.1" id="Layer_1" xmlns="http://www.w3.org/2000/svg" xmlns:xlink="http://www.w3.org/1999/xlink" x="0px" y="0px"
	 viewBox="0 0 130 130" style="enable-background:new 0 0 130 130;" xml:space="preserve">
<style type="text/css">
	.st0{fill:#6399FF;}
	.st1{fill:none;stroke:#6399FF;stroke-width:3;stroke-miterlimit:10;}
</style>
<g id="Page-1">
	<g id="Website_Desktop_1360" transform="translate(-912.000000, -7711.000000)">
		<g id="Email-management-Copy" transform="translate(911.737589, 7711.056738)">
			<path id="Fill-1" class="st0" d="M89.2,80.3H81c-0.8,0-1.4-0.6-1.4-1.4s0.6-1.4,1.4-1.4h8.2c2.3,0,4.1-1.8,4.1-4.1V43.3
				c0-2.3-1.8-4.1-4.1-4.1H39.9c-2.3,0-4.1,1.8-4.1,4.1v30.1c0,2.3,1.8,4.1,4.1,4.1h8.2c0.8,0,1.4,0.6,1.4,1.4s-0.6,1.4-1.4,1.4
				h-8.2c-3.8,0-6.8-3.1-6.8-6.8V43.3c0-3.8,3.1-6.8,6.8-6.8h49.3c3.8,0,6.8,3.1,6.8,6.8v30.1C96,77.2,92.9,80.3,89.2,80.3
				L89.2,80.3z"/>
			<path id="Fill-2" class="st0" d="M64.5,61.1c-1.5,0-2.9-0.5-4.2-1.4L39.1,44.4c-0.6-0.4-0.8-1.3-0.3-1.9c0.4-0.6,1.3-0.8,1.9-0.3
				L62,57.6c1.6,1.1,3.6,1.1,5.1,0l21.3-15.4c0.6-0.4,1.5-0.3,1.9,0.3s0.3,1.5-0.3,1.9L68.7,59.8C67.4,60.7,66,61.1,64.5,61.1
				L64.5,61.1z"/>
			<path id="Fill-3" class="st0" d="M39.9,74.8c-0.3,0-0.7-0.1-1-0.4c-0.5-0.5-0.5-1.4,0-1.9l13.7-13.7c0.5-0.5,1.4-0.5,1.9,0
				s0.5,1.4,0,1.9L40.8,74.4C40.6,74.6,40.2,74.8,39.9,74.8L39.9,74.8z"/>
			<path id="Fill-4" class="st0" d="M89.2,74.8c-0.3,0-0.7-0.1-1-0.4L74.5,60.7c-0.5-0.5-0.5-1.4,0-1.9s1.4-0.5,1.9,0l13.7,13.7
				c0.5,0.5,0.5,1.4,0,1.9C89.9,74.6,89.5,74.8,89.2,74.8L89.2,74.8z"/>
			<path id="Fill-5" class="st0" d="M64.5,94c-6.8,0-12.3-5.5-12.3-12.3s5.5-12.3,12.3-12.3c6.6,0,12.3,6,12.3,9.6
				c0,0.8-0.6,1.4-1.4,1.4S74,79.8,74,79c0-1.9-4.4-6.8-9.6-6.8c-5.3,0-9.6,4.3-9.6,9.6s4.3,9.6,9.6,9.6c0.8,0,1.4,0.6,1.4,1.4
				C65.9,93.3,65.3,94,64.5,94L64.5,94z"/>
			<path id="Fill-6" class="st0" d="M75.5,80.3h-8.2c-0.8,0-1.4-0.6-1.4-1.4s0.6-1.4,1.4-1.4h6.8v-6.8c0-0.8,0.6-1.4,1.4-1.4
				s1.4,0.6,1.4,1.4v8.2C76.8,79.6,76.2,80.3,75.5,80.3L75.5,80.3z"/>
		</g>
	</g>
</g>
<circle id="XMLID_1_" class="st1" cx="64.3" cy="64.3" r="60"/>
</svg>
