<?xml version="1.0" encoding="utf-8"?>
<!-- Generator: Adobe Illustrator 19.0.0, SVG Export Plug-In . SVG Version: 6.00 Build 0)  -->
<svg version="1.1" id="Layer_1" xmlns="http://www.w3.org/2000/svg" xmlns:xlink="http://www.w3.org/1999/xlink" x="0px" y="0px"
	 viewBox="-240 332 130 130" style="enable-background:new -240 332 130 130;" xml:space="preserve">
<style type="text/css">
	.st0{fill:#6399FF;}
	.st1{fill:#6399FF;stroke:#6399FF;}
	.st2{fill:none;stroke:#6399FF;stroke-width:3;stroke-miterlimit:10;}
</style>
<g id="Page-1_1_">
	<g id="Website_Desktop_1360_1_" transform="translate(-505.000000, -7703.000000)">
		<g id="Group-13" transform="translate(505.226950, 7703.127660)">
			<path id="Stroke-1-Copy" class="st0" d="M62.3,444.9H34.5c-1.1,0-2-0.9-2-2v-55c0-1.1,0.9-2,2-2H75c1.1,0,2,0.9,2,2v31.4
				c0,0.9,0.7,1.6,1.6,1.6s1.6-0.7,1.6-1.6v-31.4c0-2.8-2.3-5.2-5.2-5.2H34.4c-2.8,0-5.2,2.3-5.2,5.2v55c0,2.9,2.3,5.2,5.2,5.2h27.8
				c0.9,0,1.6-0.7,1.6-1.6S63.1,444.9,62.3,444.9L62.3,444.9z"/>
			<path id="Stroke-5-Copy-2" class="st0" d="M41.6,417.1h26.5c0.8,0,1.4-0.6,1.4-1.4c0-0.8-0.6-1.4-1.4-1.4H41.6
				c-0.8,0-1.4,0.6-1.4,1.4C40.2,416.5,40.9,417.1,41.6,417.1L41.6,417.1z"/>
			<path id="Stroke-5-Copy-3" class="st0" d="M41.6,397.4h26.5c0.8,0,1.4-0.6,1.4-1.4c0-0.8-0.6-1.4-1.4-1.4H41.6
				c-0.8,0-1.4,0.6-1.4,1.4C40.2,396.8,40.9,397.4,41.6,397.4L41.6,397.4z"/>
			<path id="Stroke-6-Copy-2" class="st0" d="M41.6,407.3h26.5c0.8,0,1.4-0.6,1.4-1.4c0-0.8-0.6-1.4-1.4-1.4H41.6
				c-0.8,0-1.4,0.6-1.4,1.4C40.2,406.7,40.9,407.3,41.6,407.3L41.6,407.3z"/>
			<path id="Stroke-5-Copy-5" class="st0" d="M41.6,436.9H61c0.8,0,1.4-0.6,1.4-1.4c0-0.8-0.6-1.4-1.4-1.4H41.7
				c-0.8,0-1.4,0.6-1.4,1.4C40.2,436.3,40.9,436.9,41.6,436.9L41.6,436.9z"/>
			<path id="Stroke-6-Copy-3" class="st0" d="M41.6,427h26.5c0.8,0,1.4-0.6,1.4-1.4c0-0.8-0.6-1.4-1.4-1.4H41.6
				c-0.8,0-1.4,0.6-1.4,1.4C40.2,426.4,40.9,427,41.6,427L41.6,427z"/>
			<path id="Stroke-2" class="st0" d="M63.8,431c0,0.1,0,0.4,0.1,0.8c0.1,0.6,0.1,1.3,0.2,2c0.2,2.1,0.5,4.1,0.8,6.1
				c0.6,3.7,1.3,6.4,2.2,8c0.9,1.6,2,3,3.1,4c1,0.9,2,1.6,3.2,2.2c0.7,0.3,2.6,1.2,2.5,1.2c0.9,0.4,1.1,0.6,1.2,1
				c0.3,1.4,2.3,1.4,2.6,0c0.1-0.3,0.3-0.5,1.2-1c-0.1,0.1,1.8-0.8,2.5-1.2c1.2-0.6,2.2-1.3,3.2-2.2c1.2-1.1,2.2-2.4,3.1-4
				c0.9-1.6,1.6-4.4,2.2-8c0.3-1.9,0.6-4,0.8-6.1c0.1-0.7,0.1-1.4,0.2-2c0-0.4,0.1-0.6,0.1-0.8c0.1-0.9-0.8-1.6-1.7-1.4
				c-3.5,0.8-6.5-0.4-9.2-3c-0.7-0.7-1.4-1.5-2-2.3c-0.2-0.3-0.4-0.5-0.5-0.8c-0.1-0.1-0.1-0.2-0.1-0.3c-0.5-0.9-1.9-0.9-2.4,0
				c0,0-0.1,0.1-0.2,0.3c-0.1,0.2-0.3,0.5-0.5,0.8c-0.6,0.8-1.2,1.6-2,2.3c-2.7,2.6-5.7,3.9-9.2,3C64.6,429.4,63.8,430.1,63.8,431
				L63.8,431z M66.5,430.8l-1.7,1.4c4.5,1.1,8.4-0.5,11.7-3.7c0.9-0.9,1.6-1.8,2.3-2.7c0.4-0.6,0.7-1,0.8-1.3h-2.4
				c0.1,0.3,0.4,0.7,0.8,1.3c0.6,0.9,1.4,1.8,2.3,2.7c3.3,3.2,7.2,4.8,11.7,3.7l-1.7-1.4c0,0.1,0,0.4-0.1,0.7
				c-0.1,0.6-0.1,1.2-0.2,2c-0.2,2-0.5,4-0.8,5.9c-0.6,3.4-1.2,5.9-1.9,7.1c-0.8,1.4-1.6,2.5-2.6,3.4c-0.8,0.7-1.6,1.3-2.6,1.8
				c-0.6,0.3-2.5,1.1-2.4,1.1c-1.6,0.7-2.4,1.5-2.7,2.9h2.6c-0.3-1.4-1.1-2.1-2.7-2.9c0.1,0-1.8-0.8-2.4-1.1c-1-0.5-1.8-1.1-2.6-1.8
				c-1-0.9-1.8-2-2.6-3.4c-0.7-1.2-1.4-3.8-1.9-7.1c-0.3-1.9-0.6-3.9-0.8-5.9c-0.1-0.7-0.1-1.4-0.2-2
				C66.6,431.2,66.5,430.9,66.5,430.8L66.5,430.8z"/>
			<path id="Fill-1_1_" class="st1" d="M82.6,436.2l-5,7.2l-3.6-2.9c-0.4-0.3-1-0.3-1.3,0.1c-0.3,0.4-0.3,1,0.1,1.3l4.3,3.5
				c0.2,0.1,0.4,0.2,0.6,0.2h0.1c0.3,0,0.5-0.2,0.6-0.4l5.6-8c0.3-0.4,0.2-1-0.2-1.3C83.5,435.7,82.9,435.8,82.6,436.2L82.6,436.2z"
				/>
		</g>
	</g>
</g>
<circle id="XMLID_1_" class="st2" cx="-175.7" cy="396.3" r="60"/>
<g id="Page-1">
	<g id="Website_Desktop_1360" transform="translate(-505.000000, -7195.000000)">
		<g id="Time-and-expenses" transform="translate(505.000000, 7195.000000)">
			<path id="Fill-1" class="st0" d="M-158,380.3V375h1.3c1.9,0,3.5-1.6,3.5-3.5v-0.4c0-1.8-1.6-3.4-3.5-3.4h-36.8
				c-1.9,0-3.5,1.6-3.5,3.5v0.4c0,1.9,1.6,3.5,3.5,3.5h1.3v5.2c0,8.5,6.5,15.6,14.6,16.6v0.1v0.1c-8.3,1.1-14.6,8-14.6,16.6v5.1
				h-1.3c-1.9,0-3.5,1.6-3.5,3.5v0.4c0,1.9,1.6,3.5,3.5,3.5h36.9c1.9,0,3.5-1.6,3.5-3.5v-0.4c0-1.9-1.6-3.5-3.5-3.5h-1.5v-5.2
				c0-8.5-6.5-15.6-14.6-16.6v-0.1v-0.1C-164.5,395.7-158,388.7-158,380.3L-158,380.3z M-193.5,372.6c-0.6,0-1.1-0.5-1.1-1.1v-0.4
				c0-0.6,0.5-1.1,1.1-1.1h36.9c0.6,0,1.1,0.5,1.1,1.1v0.4c0,0.6-0.5,1.1-1.1,1.1H-193.5z M-160.4,375v5.2c0,2.1-0.5,4-1.2,5.8
				h-26.8c-0.7-1.8-1.2-3.8-1.2-5.8V375H-160.4z M-156.7,421.3c0.6,0,1.1,0.5,1.1,1.1v0.4c0,0.6-0.5,1.1-1.1,1.1h-36.8
				c-0.6,0-1.1-0.5-1.1-1.1v-0.4c0-0.6,0.5-1.1,1.1-1.1H-156.7z M-186.5,418.9c2.8-4,6.9-6.5,11.4-6.5c4.5,0,8.6,2.3,11.3,6.5
				H-186.5z M-160.4,413.7v5.1h-0.4c-3.2-5.5-8.4-8.9-14.3-8.9s-11.1,3.3-14.3,8.9h-0.4v-5.2c0-7.8,6.5-14.3,14.4-14.3h0.6
				C-166.9,399.4-160.4,405.8-160.4,413.7L-160.4,413.7z M-174.7,394.5h-0.6c-4.9,0-9.1-2.4-11.7-6.1h24
				C-165.7,392.1-169.9,394.5-174.7,394.5L-174.7,394.5z"/>
			<path id="Fill-2" class="st0" d="M-175.1,406.7c-0.7,0-1.2-0.5-1.2-1.2v-3.7c0-0.7,0.5-1.2,1.2-1.2s1.2,0.5,1.2,1.2v3.7
				C-173.8,406.2-174.3,406.7-175.1,406.7L-175.1,406.7z"/>
		</g>
	</g>
</g>
</svg>
