<?xml version="1.0" encoding="utf-8"?>
<!-- Generator: Adobe Illustrator 19.0.0, SVG Export Plug-In . SVG Version: 6.00 Build 0)  -->
<svg version="1.1" id="Layer_1" xmlns="http://www.w3.org/2000/svg" xmlns:xlink="http://www.w3.org/1999/xlink" x="0px" y="0px"
	 viewBox="-240 332 130 130" style="enable-background:new -240 332 130 130;" xml:space="preserve">
<style type="text/css">
	.st0{fill:none;stroke:#6399FF;stroke-width:3;stroke-miterlimit:10;}
	.st1{fill:#6399FF;}
</style>
<circle id="XMLID_1_" class="st0" cx="-175.7" cy="396.3" r="60"/>
<g id="Page-1_1_">
	<g id="Website_Desktop_1360_1_" transform="translate(-912.000000, -7198.000000)">
		<g id="Arvhiving" transform="translate(912.000000, 7198.000000)">
			<path id="Fill-1_1_" class="st1" d="M-179.3,400.5h8.5v-4h-8.5V400.5z M-149.6,381.2h-28.7c-0.7,0-1.2,0.5-1.2,1.2
				c0,0.7,0.5,1.2,1.2,1.2h28.7c0.1,0,0.3,0,0.3,0l0.1,0l0.1,0c1,0.2,1.8,1.1,1.8,2.1v8.6c0,1.2-1,2.2-2.2,2.2h-18.6v-1.4
				c0-0.7-0.5-1.2-1.2-1.2h-11c-0.7,0-1.2,0.5-1.2,1.2v6.4c0,0.7,0.5,1.2,1.2,1.2h11c0.7,0,1.2-0.5,1.2-1.2v-2.6h18.6
				c0.8,0,1.5-0.2,2.2-0.6v17.2c0,1.2-1,2.2-2.2,2.2h-50.7c-1.2,0-2.2-1-2.2-2.2v-17.2c0.7,0.4,1.5,0.6,2.2,0.6h13.9
				c0.7,0,1.2-0.5,1.2-1.2c0-0.7-0.5-1.2-1.2-1.2h-13.9c-1.2,0-2.2-1-2.2-2.2v-8.7c0-1,0.7-1.9,1.8-2.1c0.1,0,0.2,0,0.3,0
				c0.1,0,0.1,0,0.2,0h15.1c0.7,0,1.2-0.5,1.2-1.2v-3.7c0-1.5,1.2-2.7,2.7-2.7h12.5c1.5,0,2.7,1.2,2.7,2.7c0,0.7,0.5,1.2,1.2,1.2
				c0.7,0,1.2-0.5,1.2-1.2c0-2.8-2.3-5.1-5.2-5.1h-12.4c-2.9,0-5.2,2.3-5.2,5.1v2.5h-14c-2.6,0-4.7,2.1-4.7,4.7v29.9
				c0,2.5,2.2,4.7,4.7,4.7h50.7c2.6,0,4.7-2.1,4.7-4.7v-30C-144.9,383.3-147,381.2-149.6,381.2L-149.6,381.2z"/>
			<path id="Fill-3" class="st1" d="M-199.7,385.5c-0.7,0-1.2,0.6-1.2,1.2v6.6c0,0.6,0.4,1.1,1.1,1.1c0.6,0,1.1-0.5,1.1-1v-5.8h7.2
				c0.6,0,1.1-0.4,1.1-1.1c0-0.6-0.4-1.1-1.1-1.1H-199.7z"/>
		</g>
	</g>
</g>
</svg>
