<?xml version="1.0" encoding="utf-8"?>
<!-- Generator: Adobe Illustrator 19.0.0, SVG Export Plug-In . SVG Version: 6.00 Build 0)  -->
<svg version="1.1" id="Layer_1" xmlns="http://www.w3.org/2000/svg" xmlns:xlink="http://www.w3.org/1999/xlink" x="0px" y="0px"
	 viewBox="0 0 130 130" style="enable-background:new 0 0 130 130;" xml:space="preserve">
<style type="text/css">
	.st0{fill:#6399FF;}
	.st1{fill:#6399FF;stroke:#6399FF;}
	.st2{fill:none;stroke:#6399FF;stroke-width:3;stroke-miterlimit:10;}
</style>
<g id="Page-1_2_">
	<g id="Website_Desktop_1360_2_" transform="translate(-86.000000, -7707.000000)">
		<g id="Group-16" transform="translate(85.885714, 7706.957143)">
			<path id="Rectangle-5" class="st0" d="M230.5,39.8h-21.7c-0.9,0-1.7-0.7-1.7-1.6V8.5c0-0.9,0.7-1.6,1.7-1.6h37.3
				c0.9,0,1.7,0.7,1.7,1.7v14.9c0,0.5,0.4,0.9,0.9,0.9s0.9-0.4,0.9-0.9v-15c0-1.9-1.6-3.5-3.5-3.5h-37.3c-1.9,0-3.5,1.6-3.5,3.5
				v29.6c0,1.9,1.6,3.5,3.5,3.5h21.7c0.5,0,0.9-0.4,0.9-0.9S231,39.8,230.5,39.8L230.5,39.8z"/>
			<path id="Oval-16" class="st0" d="M243.9,47.4c6,0,10.9-4.9,10.9-10.9s-4.9-10.9-10.9-10.9S233,30.5,233,36.5
				S237.9,47.4,243.9,47.4L243.9,47.4z M243.9,45.6c-5,0-9.1-4.1-9.1-9.1s4.1-9.1,9.1-9.1s9.1,4.1,9.1,9.1S248.9,45.6,243.9,45.6
				L243.9,45.6z"/>
			<path id="Line" class="st0" d="M209.8,15.6h35.6c0.5,0,0.9-0.4,0.9-0.9s-0.4-0.9-0.9-0.9h-35.6c-0.5,0-0.9,0.4-0.9,0.9
				S209.2,15.6,209.8,15.6L209.8,15.6z"/>
			<ellipse id="Oval-13" class="st0" cx="212.6" cy="11.1" rx="1.3" ry="1.3"/>
			<ellipse id="Oval-13-Copy" class="st0" cx="216.5" cy="11.1" rx="1.3" ry="1.3"/>
			<ellipse id="Oval-13-Copy-2" class="st0" cx="220.4" cy="11.1" rx="1.3" ry="1.3"/>
			<path id="Path" class="st0" d="M249.4,36.2c0.4,0.5,0.4,1.2,0,1.6l-2.7,2.9c-0.2,0.2-0.6,0.4-0.9,0.4c-0.3,0-0.6-0.1-0.8-0.3
				c-0.5-0.4-0.5-1.2-0.1-1.7l0.8-0.9h-5.4c-0.7,0-1.2-0.5-1.2-1.2s0.5-1.2,1.2-1.2h5.4l-0.8-0.9c-0.4-0.5-0.4-1.3,0.1-1.7
				s1.3-0.4,1.7,0.1L249.4,36.2z"/>
		</g>
	</g>
</g>
<g id="Page-1_1_">
	<g id="Website_Desktop_1360_1_" transform="translate(-505.000000, -7703.000000)">
		<g id="Group-13" transform="translate(505.226950, 7703.127660)">
			<path id="Stroke-1-Copy" class="st0" d="M65.9,89.8H38.1c-1.1,0-2-0.9-2-2v-55c0-1.1,0.9-2,2-2h40.6c1.1,0,2,0.9,2,2v31.4
				c0,0.9,0.7,1.6,1.6,1.6s1.6-0.7,1.6-1.6V32.8c0-2.8-2.3-5.2-5.2-5.2H38.1c-2.8,0-5.2,2.3-5.2,5.2v55c0,2.9,2.3,5.2,5.2,5.2h27.8
				c0.9,0,1.6-0.7,1.6-1.6S66.8,89.8,65.9,89.8L65.9,89.8z"/>
			<path id="Stroke-5-Copy-2" class="st0" d="M45.2,62h26.5c0.8,0,1.4-0.6,1.4-1.4c0-0.8-0.6-1.4-1.4-1.4H45.2
				c-0.8,0-1.4,0.6-1.4,1.4S44.5,62,45.2,62L45.2,62z"/>
			<path id="Stroke-5-Copy-3" class="st0" d="M45.2,42.2h26.5c0.8,0,1.4-0.6,1.4-1.4c0-0.8-0.6-1.4-1.4-1.4H45.2
				c-0.8,0-1.4,0.6-1.4,1.4C43.8,41.6,44.5,42.2,45.2,42.2L45.2,42.2z"/>
			<path id="Stroke-6-Copy-2" class="st0" d="M45.2,52.1h26.5c0.8,0,1.4-0.6,1.4-1.4c0-0.8-0.6-1.4-1.4-1.4H45.2
				c-0.8,0-1.4,0.6-1.4,1.4S44.5,52.1,45.2,52.1L45.2,52.1z"/>
			<path id="Stroke-5-Copy-5" class="st0" d="M45.2,81.8h19.3c0.8,0,1.4-0.6,1.4-1.4S65.3,79,64.5,79H45.2c-0.8,0-1.4,0.6-1.4,1.4
				C43.8,81.1,44.5,81.8,45.2,81.8L45.2,81.8z"/>
			<path id="Stroke-6-Copy-3" class="st0" d="M45.2,71.9h26.5c0.8,0,1.4-0.6,1.4-1.4s-0.6-1.4-1.4-1.4H45.2c-0.8,0-1.4,0.6-1.4,1.4
				S44.5,71.9,45.2,71.9L45.2,71.9z"/>
			<path id="Stroke-2" class="st0" d="M67.4,75.9c0,0.1,0,0.4,0.1,0.8c0.1,0.6,0.1,1.3,0.2,2c0.2,2.1,0.5,4.1,0.8,6.1
				c0.6,3.7,1.3,6.4,2.2,8c0.9,1.6,2,3,3.1,4c1,0.9,2,1.6,3.2,2.2c0.7,0.3,2.6,1.2,2.5,1.2c0.9,0.4,1.1,0.6,1.2,1
				c0.3,1.4,2.3,1.4,2.6,0c0.1-0.3,0.3-0.5,1.2-1c-0.1,0.1,1.8-0.8,2.5-1.2c1.2-0.6,2.2-1.3,3.2-2.2c1.2-1.1,2.2-2.4,3.1-4
				s1.6-4.4,2.2-8c0.3-1.9,0.6-4,0.8-6.1c0.1-0.7,0.1-1.4,0.2-2c0-0.4,0.1-0.6,0.1-0.8c0.1-0.9-0.8-1.6-1.7-1.4
				c-3.5,0.8-6.5-0.4-9.2-3c-0.7-0.7-1.4-1.5-2-2.3c-0.2-0.3-0.4-0.5-0.5-0.8c-0.1-0.1-0.1-0.2-0.1-0.3c-0.5-0.9-1.9-0.9-2.4,0
				c0,0-0.1,0.1-0.2,0.3c-0.1,0.2-0.3,0.5-0.5,0.8c-0.6,0.8-1.2,1.6-2,2.3c-2.7,2.6-5.7,3.9-9.2,3C68.2,74.3,67.4,75,67.4,75.9
				L67.4,75.9z M70.1,75.7l-1.7,1.4c4.5,1.1,8.4-0.5,11.7-3.7c0.9-0.9,1.6-1.8,2.3-2.7c0.4-0.6,0.7-1,0.8-1.3h-2.4
				c0.1,0.3,0.4,0.7,0.8,1.3c0.6,0.9,1.4,1.8,2.3,2.7c3.3,3.2,7.2,4.8,11.7,3.7L94,75.7c0,0.1,0,0.4-0.1,0.7c-0.1,0.6-0.1,1.2-0.2,2
				c-0.2,2-0.5,4-0.8,5.9c-0.6,3.4-1.2,5.9-1.9,7.1c-0.8,1.4-1.6,2.5-2.6,3.4c-0.8,0.7-1.6,1.3-2.6,1.8c-0.6,0.3-2.5,1.1-2.4,1.1
				c-1.6,0.7-2.4,1.5-2.7,2.9h2.6c-0.3-1.4-1.1-2.1-2.7-2.9c0.1,0-1.8-0.8-2.4-1.1c-1-0.5-1.8-1.1-2.6-1.8c-1-0.9-1.8-2-2.6-3.4
				c-0.7-1.2-1.4-3.8-1.9-7.1c-0.3-1.9-0.6-3.9-0.8-5.9c-0.1-0.7-0.1-1.4-0.2-2C70.2,76.1,70.1,75.8,70.1,75.7L70.1,75.7z"/>
			<path id="Fill-1_1_" class="st1" d="M86.2,81.1l-5,7.2l-3.6-2.9c-0.4-0.3-1-0.3-1.3,0.1s-0.3,1,0.1,1.3l4.3,3.5
				c0.2,0.1,0.4,0.2,0.6,0.2h0.1c0.3,0,0.5-0.2,0.6-0.4l5.6-8c0.3-0.4,0.2-1-0.2-1.3C87.1,80.6,86.5,80.7,86.2,81.1L86.2,81.1z"/>
		</g>
	</g>
</g>
<circle id="XMLID_1_" class="st2" cx="64.3" cy="64.3" r="60"/>
</svg>
