<?xml version="1.0" encoding="utf-8"?>
<!-- Generator: Adobe Illustrator 19.0.0, SVG Export Plug-In . SVG Version: 6.00 Build 0)  -->
<svg version="1.1" id="Layer_1" xmlns="http://www.w3.org/2000/svg" xmlns:xlink="http://www.w3.org/1999/xlink" x="0px" y="0px"
	 viewBox="-240 332 130 130" style="enable-background:new -240 332 130 130;" xml:space="preserve">
<style type="text/css">
	.st0{fill:none;stroke:#6399FF;stroke-width:3;stroke-miterlimit:10;}
	.st1{fill:#6399FF;}
</style>
<circle id="XMLID_1_" class="st0" cx="-175.7" cy="396.3" r="60"/>
<g id="Page-1">
	<g id="Website_Desktop_1360" transform="translate(-89.000000, -7204.000000)">
		<path id="ي" class="st1" d="M-62.7,7588.7H-63c-1.4-0.8-2.9-1.6-4.8-2.2c-1.8-0.6-3.8-0.9-6-0.9c-1.8,0-3.4,0.4-4.9,1.2
			c-1.4,0.8-2.2,1.8-2.2,3c0,1,1,1.9,3.1,2.8s3.9,1.5,5.5,2.1c1,0.4,2,0.8,3.2,1.4c1.1,0.5,2,1.1,2.8,1.6c0.9,0.6,1.5,1.3,2,2
			c0.5,0.7,0.7,1.6,0.7,2.6c0,3.6-2.3,6.4-7,8.3c-4.7,1.9-11.7,2.8-20.9,2.8c-6.2,0-10.7-1-13.6-3.1c-2.9-2.1-4.3-5.3-4.3-9.7
			c0-1.5,0.1-3,0.3-4.5c0.2-1.5,0.3-2.4,0.3-2.8h5v0.3c-0.1,0.3-0.2,1.3-0.4,2.9c-0.2,1.6-0.3,3-0.3,4.1c0,2.7,1,4.6,3,5.8
			c2,1.1,5.4,1.7,10.1,1.7c7.8,0,13.6-0.5,17.4-1.5s5.7-2.3,5.7-4.1c0-0.9-1-1.7-3.1-2.5c-2.1-0.8-3.9-1.5-5.5-2.1
			c-1-0.4-2.1-0.9-3.2-1.4c-1.1-0.5-2-1.1-2.8-1.7c-0.8-0.6-1.5-1.4-2-2.2c-0.5-0.8-0.7-1.7-0.7-2.7c0-2.5,1.1-4.7,3.4-6.6
			c2.2-1.9,5.1-2.8,8.5-2.8c2.4,0,4.5,0.2,6.3,0.7c1.8,0.5,3.4,1,4.7,1.6V7588.7z M-92.1,7621.8h-4.3v-4.3h4.3V7621.8z
			 M-84.3,7621.8h-4.3v-4.3h4.3V7621.8z"/>
	</g>
</g>
</svg>
