<?xml version="1.0" encoding="utf-8"?>
<!-- Generator: Adobe Illustrator 19.0.0, SVG Export Plug-In . SVG Version: 6.00 Build 0)  -->
<svg version="1.1" id="Layer_1" xmlns="http://www.w3.org/2000/svg" xmlns:xlink="http://www.w3.org/1999/xlink" x="0px" y="0px"
	 viewBox="0 0 130 130" style="enable-background:new 0 0 130 130;" xml:space="preserve">
<style type="text/css">
	.st0{fill:#6399FF;}
	.st1{fill:#6399FF;stroke:#6399FF;}
	.st2{fill:none;stroke:#6399FF;stroke-width:3;stroke-miterlimit:10;}
</style>
<g id="Page-1_2_">
	<g id="Website_Desktop_1360_2_" transform="translate(-86.000000, -7707.000000)">
		<g id="Group-16" transform="translate(85.885714, 7706.957143)">
			<path id="Rectangle-5" class="st0" d="M65.7,83.1H36.8c-1.2,0-2.2-1-2.2-2.2V41.4c0-1.2,1-2.2,2.2-2.2h49.7c1.2,0,2.2,1,2.2,2.2
				v19.8c0,0.7,0.5,1.2,1.2,1.2s1.2-0.5,1.2-1.2V41.5c0-2.6-2.1-4.7-4.7-4.7H36.8c-2.6,0-4.7,2.1-4.7,4.7V81c0,2.6,2.1,4.7,4.7,4.7
				h28.9c0.7,0,1.2-0.5,1.2-1.2C66.9,83.7,66.3,83.1,65.7,83.1L65.7,83.1z"/>
			<path id="Oval-16" class="st0" d="M83.6,93.3c8,0,14.5-6.5,14.5-14.5s-6.5-14.5-14.5-14.5S69,70.7,69,78.8S75.5,93.3,83.6,93.3
				L83.6,93.3z M83.6,90.8c-6.7,0-12.1-5.4-12.1-12.1s5.4-12.1,12.1-12.1S95.7,72,95.7,78.7S90.2,90.8,83.6,90.8L83.6,90.8z"/>
			<path id="Line" class="st0" d="M38,50.8h47.4c0.7,0,1.2-0.5,1.2-1.2s-0.5-1.2-1.2-1.2H38c-0.7,0-1.2,0.5-1.2,1.2
				C36.7,50.3,37.3,50.8,38,50.8L38,50.8z"/>
			<ellipse id="Oval-13" class="st0" cx="41.8" cy="44.9" rx="1.7" ry="1.7"/>
			<ellipse id="Oval-13-Copy" class="st0" cx="47" cy="44.9" rx="1.7" ry="1.7"/>
			<ellipse id="Oval-13-Copy-2" class="st0" cx="52.2" cy="44.9" rx="1.7" ry="1.7"/>
			<path id="Path" class="st0" d="M90.8,78.4c0.6,0.6,0.6,1.5,0,2.2l-3.5,3.9C87,84.8,86.5,85,86.1,85c-0.4,0-0.8-0.1-1.1-0.4
				c-0.6-0.6-0.7-1.6-0.1-2.3l1.1-1.2h-7.2c-0.9,0-1.6-0.7-1.6-1.6s0.7-1.6,1.6-1.6h7.1l-1.1-1.2c-0.6-0.6-0.6-1.7,0.1-2.3
				c0.6-0.6,1.7-0.6,2.3,0.1L90.8,78.4z"/>
		</g>
	</g>
</g>
<g id="Page-1_1_">
	<g id="Website_Desktop_1360_1_" transform="translate(-505.000000, -7703.000000)">
		<g id="Group-13" transform="translate(505.226950, 7703.127660)">
			<path id="Stroke-1-Copy" class="st0" d="M302.3,112.9h-27.8c-1.1,0-2-0.9-2-2v-55c0-1.1,0.9-2,2-2H315c1.1,0,2,0.9,2,2v31.4
				c0,0.9,0.7,1.6,1.6,1.6s1.6-0.7,1.6-1.6V55.9c0-2.8-2.3-5.2-5.2-5.2h-40.6c-2.8,0-5.2,2.3-5.2,5.2v55c0,2.9,2.3,5.2,5.2,5.2h27.8
				c0.9,0,1.6-0.7,1.6-1.6S303.1,112.9,302.3,112.9L302.3,112.9z"/>
			<path id="Stroke-5-Copy-2" class="st0" d="M281.6,85.1h26.5c0.8,0,1.4-0.6,1.4-1.4s-0.6-1.4-1.4-1.4h-26.5
				c-0.8,0-1.4,0.6-1.4,1.4S280.9,85.1,281.6,85.1L281.6,85.1z"/>
			<path id="Stroke-5-Copy-3" class="st0" d="M281.6,65.4h26.5c0.8,0,1.4-0.6,1.4-1.4s-0.6-1.4-1.4-1.4h-26.5
				c-0.8,0-1.4,0.6-1.4,1.4S280.9,65.4,281.6,65.4L281.6,65.4z"/>
			<path id="Stroke-6-Copy-2" class="st0" d="M281.6,75.3h26.5c0.8,0,1.4-0.6,1.4-1.4s-0.6-1.4-1.4-1.4h-26.5
				c-0.8,0-1.4,0.6-1.4,1.4S280.9,75.3,281.6,75.3L281.6,75.3z"/>
			<path id="Stroke-5-Copy-5" class="st0" d="M281.6,104.9H301c0.8,0,1.4-0.6,1.4-1.4s-0.6-1.4-1.4-1.4h-19.3
				c-0.8,0-1.4,0.6-1.4,1.4C280.2,104.3,280.9,104.9,281.6,104.9L281.6,104.9z"/>
			<path id="Stroke-6-Copy-3" class="st0" d="M281.6,95h26.5c0.8,0,1.4-0.6,1.4-1.4s-0.6-1.4-1.4-1.4h-26.5c-0.8,0-1.4,0.6-1.4,1.4
				S280.9,95,281.6,95L281.6,95z"/>
			<path id="Stroke-2" class="st0" d="M303.8,99c0,0.1,0,0.4,0.1,0.8c0.1,0.6,0.1,1.3,0.2,2c0.2,2.1,0.5,4.1,0.8,6.1
				c0.6,3.7,1.3,6.4,2.2,8c0.9,1.6,2,3,3.1,4c1,0.9,2,1.6,3.2,2.2c0.7,0.3,2.6,1.2,2.5,1.2c0.9,0.4,1.1,0.6,1.2,1
				c0.3,1.4,2.3,1.4,2.6,0c0.1-0.3,0.3-0.5,1.2-1c-0.1,0.1,1.8-0.8,2.5-1.2c1.2-0.6,2.2-1.3,3.2-2.2c1.2-1.1,2.2-2.4,3.1-4
				s1.6-4.4,2.2-8c0.3-1.9,0.6-4,0.8-6.1c0.1-0.7,0.1-1.4,0.2-2c0-0.4,0.1-0.6,0.1-0.8c0.1-0.9-0.8-1.6-1.7-1.4
				c-3.5,0.8-6.5-0.4-9.2-3c-0.7-0.7-1.4-1.5-2-2.3c-0.2-0.3-0.4-0.5-0.5-0.8c-0.1-0.1-0.1-0.2-0.1-0.3c-0.5-0.9-1.9-0.9-2.4,0
				c0,0-0.1,0.1-0.2,0.3c-0.1,0.2-0.3,0.5-0.5,0.8c-0.6,0.8-1.2,1.6-2,2.3c-2.7,2.6-5.7,3.9-9.2,3C304.6,97.4,303.8,98.1,303.8,99
				L303.8,99z M306.5,98.8l-1.7,1.4c4.5,1.1,8.4-0.5,11.7-3.7c0.9-0.9,1.6-1.8,2.3-2.7c0.4-0.6,0.7-1,0.8-1.3h-2.4
				c0.1,0.3,0.4,0.7,0.8,1.3c0.6,0.9,1.4,1.8,2.3,2.7c3.3,3.2,7.2,4.8,11.7,3.7l-1.7-1.4c0,0.1,0,0.4-0.1,0.7
				c-0.1,0.6-0.1,1.2-0.2,2c-0.2,2-0.5,4-0.8,5.9c-0.6,3.4-1.2,5.9-1.9,7.1c-0.8,1.4-1.6,2.5-2.6,3.4c-0.8,0.7-1.6,1.3-2.6,1.8
				c-0.6,0.3-2.5,1.1-2.4,1.1c-1.6,0.7-2.4,1.5-2.7,2.9h2.6c-0.3-1.4-1.1-2.1-2.7-2.9c0.1,0-1.8-0.8-2.4-1.1c-1-0.5-1.8-1.1-2.6-1.8
				c-1-0.9-1.8-2-2.6-3.4c-0.7-1.2-1.4-3.8-1.9-7.1c-0.3-1.9-0.6-3.9-0.8-5.9c-0.1-0.7-0.1-1.4-0.2-2
				C306.6,99.2,306.5,98.9,306.5,98.8L306.5,98.8z"/>
			<path id="Fill-1_1_" class="st1" d="M322.6,104.2l-5,7.2l-3.6-2.9c-0.4-0.3-1-0.3-1.3,0.1s-0.3,1,0.1,1.3l4.3,3.5
				c0.2,0.1,0.4,0.2,0.6,0.2h0.1c0.3,0,0.5-0.2,0.6-0.4l5.6-8c0.3-0.4,0.2-1-0.2-1.3C323.5,103.7,322.9,103.8,322.6,104.2
				L322.6,104.2z"/>
		</g>
	</g>
</g>
<circle id="XMLID_1_" class="st2" cx="64.3" cy="64.3" r="60"/>
</svg>
