<?xml version="1.0" encoding="utf-8"?>
<!-- Generator: Adobe Illustrator 19.0.0, SVG Export Plug-In . SVG Version: 6.00 Build 0)  -->
<svg version="1.1" id="Layer_1" xmlns="http://www.w3.org/2000/svg" xmlns:xlink="http://www.w3.org/1999/xlink" x="0px" y="0px"
	 viewBox="0 0 100 100" style="enable-background:new 0 0 100 100;" xml:space="preserve">
<style type="text/css">
	.st0{fill:#FFFFFF;}
	.st1{fill:#6399FF;stroke:#6399FF;stroke-width:0.5;stroke-miterlimit:10;}
</style>
<circle id="XMLID_1_" class="st0" cx="50" cy="50" r="43.6"/>
<path id="XMLID_63_" class="st1" d="M67.9,38.4c-0.7,0-0.9,0-0.9,0H36.8c0,0-0.2,0-0.9,0c-1.5,0-2.7,1.2-2.7,2.7
	c0,1.5,1.2,2.7,2.7,2.7c0.7,0,0.9,0,0.9,0H67c0,0,0.2,0,0.9,0c1.5,0,2.7-1.2,2.7-2.7C70.6,39.6,69.4,38.4,67.9,38.4z"/>
<path id="XMLID_62_" class="st1" d="M56.9,58h-16c-1,0-1.8,0.8-1.8,1.8c0,1,0.8,1.8,1.8,1.8h16c1,0,1.8-0.8,1.8-1.8
	C58.7,58.8,57.9,58,56.9,58z"/>
<path id="XMLID_61_" class="st1" d="M40.9,52.6h19.6c1,0,1.8-0.8,1.8-1.8c0-1-0.8-1.8-1.8-1.8H40.9c-1,0-1.8,0.8-1.8,1.8
	C39.1,51.8,39.9,52.6,40.9,52.6z"/>
<circle id="XMLID_59_" class="st1" cx="35.4" cy="59.7" r="2.1"/>
<circle id="XMLID_66_" class="st1" cx="35.4" cy="51.4" r="2.1"/>
</svg>
