<?xml version="1.0" encoding="utf-8"?>
<!-- Generator: Adobe Illustrator 19.0.0, SVG Export Plug-In . SVG Version: 6.00 Build 0)  -->
<svg version="1.1" id="Layer_1" xmlns="http://www.w3.org/2000/svg" xmlns:xlink="http://www.w3.org/1999/xlink" x="0px" y="0px"
	 viewBox="0 0 100 100" style="enable-background:new 0 0 100 100;" xml:space="preserve">
<style type="text/css">
	.st0{fill:#FFFFFF;}
	.st1{fill:#6399FF;stroke:#6399FF;stroke-width:0.5;stroke-miterlimit:10;}
</style>
<circle id="XMLID_1_" class="st0" cx="50" cy="50" r="43.6"/>
<g id="XMLID_65_">
	<path id="XMLID_80_" class="st1" d="M57.8,57.1H39.3c-0.4,0-0.7-0.3-0.7-0.7l0,0c0-0.4,0.3-0.7,0.7-0.7h18.5c0.4,0,0.7,0.3,0.7,0.7
		l0,0C58.5,56.8,58.2,57.1,57.8,57.1z"/>
	<path id="XMLID_79_" class="st1" d="M57.8,61.4H39.3c-0.4,0-0.7-0.3-0.7-0.7l0,0c0-0.4,0.3-0.7,0.7-0.7h18.5c0.4,0,0.7,0.3,0.7,0.7
		l0,0C58.5,61.1,58.2,61.4,57.8,61.4z"/>
	<path id="XMLID_78_" class="st1" d="M57.8,65.7H39.3c-0.4,0-0.7-0.3-0.7-0.7l0,0c0-0.4,0.3-0.7,0.7-0.7h18.5c0.4,0,0.7,0.3,0.7,0.7
		l0,0C58.5,65.3,58.2,65.7,57.8,65.7z"/>
	<path id="XMLID_72_" class="st1" d="M64.2,30.1H38.6c-0.8,0-1.4,0.6-1.4,1.4v1.4h-1.4c-0.8,0-1.4,0.6-1.4,1.4v34.2
		c0,0.8,0.6,1.4,1.4,1.4h25.6c0.8,0,1.4-0.6,1.4-1.4v-1.4h1.4c0.8,0,1.4-0.6,1.4-1.4V31.5C65.7,30.7,65,30.1,64.2,30.1z M35.8,68.5
		V34.3h19.9v4.3c0,0.8,0.6,1.4,1.4,1.4h4.3v28.5H35.8z M57.1,34.9l3.7,3.7h-3.7V34.9z M64.2,65.7h-1.4v-27l-5.7-5.7H38.6v-1.4h25.6
		V65.7z"/>
	<path id="XMLID_69_" class="st1" d="M48.6,37.2c-3.9,0-7.1,3.2-7.1,7.1s3.2,7.1,7.1,7.1s7.1-3.2,7.1-7.1
		C55.7,40.4,52.5,37.2,48.6,37.2z M48.6,50c-3.1,0-5.7-2.6-5.7-5.7s2.6-5.7,5.7-5.7v5.7h5.7C54.3,47.4,51.7,50,48.6,50z"/>
</g>
</svg>
