<?xml version="1.0" encoding="utf-8"?>
<!-- Generator: Adobe Illustrator 19.0.0, SVG Export Plug-In . SVG Version: 6.00 Build 0)  -->
<svg version="1.1" id="Layer_1" xmlns="http://www.w3.org/2000/svg" xmlns:xlink="http://www.w3.org/1999/xlink" x="0px" y="0px"
	 viewBox="0 0 104.5 101" style="enable-background:new 0 0 104.5 101;" xml:space="preserve">
<style type="text/css">
	.st0{fill:#FFFFFF;}
	.st1{fill:none;stroke:#6399FF;stroke-width:2;stroke-linecap:round;stroke-linejoin:round;}
	.st2{fill:#6399FF;}
</style>
<circle id="XMLID_1_" class="st0" cx="51.6" cy="51.4" r="43.6"/>
<g id="Group-14" transform="translate(45.000000, 35.000000)">
	<path id="Stroke-1-Copy" class="st1" d="M13.1,37.2H-7.1c-1.4,0-2.6-1.2-2.6-2.6V-5.2c0-1.4,1.2-2.6,2.6-2.6h29.4
		c1.4,0,2.6,1.2,2.6,2.6v22.8"/>
	<path id="Stroke-5-Copy-2" class="st1" d="M-1.9,14.9h19.2"/>
	<path id="Stroke-5-Copy-3" class="st1" d="M-1.9,0.6h19.2"/>
	<path id="Stroke-6-Copy-2" class="st1" d="M-1.9,7.8h19.2"/>
	<path id="Stroke-5-Copy-5" class="st1" d="M-1.9,29.2h14"/>
	<path id="Stroke-6-Copy-3" class="st1" d="M-1.9,22.1h19.2"/>
	<g id="Group-13" transform="translate(38.000000, 44.000000)">
		<path id="Stroke-2" class="st1" d="M-22.8-18.1c0,0,0.7,9,2.3,11.8C-17.6-1-13.6-2-13.2,0C-12.8-2-8.8-1-5.9-6.3
			c1.6-2.8,2.3-11.8,2.3-11.8c-6.1,1.5-9.6-5.1-9.6-5.1S-16.8-16.6-22.8-18.1z"/>
		<path id="Fill-1_2_" class="st2" d="M-10.2-14.2L-13.8-9l-2.6-2.1c-0.3-0.2-0.7-0.2-0.9,0.1c-0.2,0.3-0.2,0.7,0.1,0.9l3.1,2.6
			c0.1,0.1,0.3,0.2,0.4,0.2c0,0,0.1,0,0.1,0c0.2,0,0.3-0.1,0.4-0.3l4-5.8c0.2-0.3,0.1-0.7-0.2-0.9C-9.6-14.6-10-14.5-10.2-14.2
			L-10.2-14.2z"/>
	</g>
</g>
</svg>
