<?xml version="1.0" encoding="utf-8"?>
<!-- Generator: Adobe Illustrator 19.0.0, SVG Export Plug-In . SVG Version: 6.00 Build 0)  -->
<svg version="1.1" id="Layer_1" xmlns="http://www.w3.org/2000/svg" xmlns:xlink="http://www.w3.org/1999/xlink" x="0px" y="0px"
	 viewBox="0 0 100 100" style="enable-background:new 0 0 100 100;" xml:space="preserve">
<style type="text/css">
	.st0{fill:#FFFFFF;}
	.st1{fill:#6399FF;}
</style>
<circle id="XMLID_1_" class="st0" cx="50" cy="50" r="43.6"/>
<path id="Page-1" class="st1" d="M155.7,47.1h1.8c-6.6-6.5-17.2-6.3-23.6,0.3c-0.3,0.3-0.8,0.3-1.1,0c-0.3-0.3-0.3-0.8,0-1.1
	c7-7.2,18.5-7.3,25.8-0.4v-1.8c0-0.4,0.3-0.8,0.8-0.8l0,0c0.4,0,0.8,0.3,0.8,0.8v3.7c0,0.4-0.3,0.8-0.8,0.8h-3.7l0,0
	c-0.4,0-0.8-0.3-0.8-0.8C154.9,47.4,155.3,47.1,155.7,47.1L155.7,47.1z M157.8,70.8c-3.1,3.2-7.3,5-11.8,5h-0.2
	c-4.3,0-8.5-1.7-11.6-4.7h1.8c0.4,0,0.8-0.4,0.8-0.8s-0.4-0.8-0.8-0.8l0,0h-3.7c-0.4,0-0.8,0.4-0.8,0.8V74c0,0.4,0.4,0.8,0.8,0.8
	l0,0c0.4,0,0.8-0.4,0.8-0.8v-1.8c3.4,3.3,7.9,5.2,12.7,5.2h0.2c4.9,0,9.5-2,12.9-5.5c0.3-0.3,0.3-0.8,0-1.1
	C158.6,70.5,158.1,70.5,157.8,70.8L157.8,70.8z M131.2,58c-0.2-0.1-0.3-0.3-0.3-0.5v-3.1c0-1.1,0.9-2,2-2h0.7c1.1,0,2,0.9,2,2v3.1
	c0,0.2-0.1,0.4-0.3,0.5c-0.2,0.1-0.4,0.4-0.4,0.6v3c0,0.4,0.2,0.7,0.5,0.8c0.4,0.2,2.4,1.2,4.3,2.8c0.2,0.1,0.3,0.4,0.3,0.6v2.1
	c0,0.4,0.4,0.8,0.8,0.8c0.4,0,0.8-0.4,0.8-0.8v-2.1c0-0.7-0.3-1.3-0.8-1.8c-1.7-1.4-3.4-2.4-4.3-2.8v-2.3c0.4-0.4,0.6-1,0.6-1.5
	v-3.1c0-2-1.6-3.6-3.6-3.6h-0.7c-2,0-3.6,1.6-3.6,3.6v3.1c0,0.6,0.2,1.1,0.6,1.5v2.3c-0.8,0.4-2.6,1.4-4.3,2.7
	c-0.5,0.5-0.8,1.1-0.8,1.8v2.1c0,0.4,0.4,0.8,0.8,0.8c0.4,0,0.8-0.4,0.8-0.8v-2.1c0-0.2,0.1-0.5,0.3-0.6c1.9-1.5,3.9-2.6,4.3-2.8
	c0.3-0.1,0.5-0.5,0.5-0.8v-3C131.6,58.4,131.4,58.2,131.2,58L131.2,58z M166.4,64.1c-1.7-1.4-3.4-2.4-4.3-2.8V59
	c0.4-0.4,0.6-1,0.6-1.5v-3.1c0-2-1.6-3.6-3.6-3.6h-0.7c-2,0-3.6,1.6-3.6,3.6v3.1c0,0.6,0.2,1.1,0.6,1.5v2.3c-0.6,0.4-2.4,1.4-4,2.8
	c-0.6,0.4-0.9,1.1-0.9,1.7v2.1c0,0.5,0.4,0.8,0.8,0.8c0.4,0,0.8-0.4,0.8-0.8v-2.1c0-0.2,0.1-0.5,0.3-0.6c1.9-1.5,3.9-2.6,4.3-2.8
	c0.3-0.1,0.5-0.5,0.5-0.8v-3c0-0.3-0.1-0.5-0.4-0.6c-0.2-0.1-0.3-0.3-0.3-0.5v-3.1c0-1.1,0.9-2,2-2h0.7c1.1,0,2,0.9,2,2v3.1
	c0,0.2-0.1,0.4-0.3,0.5c-0.2,0.1-0.4,0.4-0.4,0.6v3c0,0.4,0.2,0.7,0.5,0.8c0.4,0.2,2.4,1.2,4.3,2.8c0.2,0.1,0.3,0.4,0.3,0.6v2.1
	c0,0.4,0.4,0.8,0.8,0.8c0.4,0,0.8-0.4,0.8-0.8v-2.1C167.3,65.2,167,64.5,166.4,64.1L166.4,64.1z"/>
<g id="XMLID_12_">
	<path id="XMLID_13_" class="st1" d="M38.8,35.7l21.5-0.1l0,30.9h2V33.6H38.8V35.7z M43.4,29v2L64.9,31l0,30.9h2V29H43.4z M35.1,67
		l1.2,1.2l2.3-2.3l2.3,2.3l2.3-2.2l2.2,2.2l2.3-2.2l2.2,2.2l2.3-2.3l2.3,2.3l1.3-1.3V40.2H35.1V67z M33.1,38.3h24.5v29.5L54.4,71
		l-2.3-2.3L49.8,71l-2.2-2.2L45.3,71l-2.2-2.2L40.8,71l-2.3-2.3L36.3,71l-3.1-3.1V38.3z M46.9,57.1c0.4-0.4,0.7-1.1,0.4-1.7
		c-0.3-0.8-1.2-1-2-1.2c-0.8-0.2-1.7-0.5-2.4-1c-2.1-1.5-2-5,0.5-6.1c0.3-0.1,0.5-0.2,0.8-0.2L44,45.3h2.7L46.4,47
		c0.4,0.1,0.9,0.3,1.2,0.5c0.8,0.5,1.2,1.3,1.4,2.2L47,50.1c-0.1-0.3-0.3-0.6-0.5-0.8c-0.3-0.2-0.7-0.3-1.1-0.4
		c-0.7,0-1.6,0.2-1.9,0.9c-0.1,0.4,0,0.8,0.2,1.1c0.3,0.3,0.9,0.5,1.9,0.8c1,0.3,1.8,0.6,2.3,0.9c0.5,0.3,0.9,0.7,1.1,1.3
		c0.8,1.6,0.5,3.9-1,5.1c-0.5,0.4-1,0.6-1.6,0.7l0.2,1.5H44l0.2-1.6c-0.6-0.1-1.1-0.4-1.5-0.7c-0.8-0.7-1.3-1.7-1.5-2.8l2-0.5
		c0.2,1.1,1,1.9,2.2,1.9C46.1,57.6,46.6,57.5,46.9,57.1L46.9,57.1z"/>
</g>
</svg>
