<?xml version="1.0" encoding="utf-8"?>
<!-- Generator: Adobe Illustrator 19.0.0, SVG Export Plug-In . SVG Version: 6.00 Build 0)  -->
<svg version="1.1" id="Layer_1" xmlns="http://www.w3.org/2000/svg" xmlns:xlink="http://www.w3.org/1999/xlink" x="0px" y="0px"
	 viewBox="0 0 100 100" style="enable-background:new 0 0 100 100;" xml:space="preserve">
<style type="text/css">
	.st0{fill:#FFFFFF;}
	.st1{fill:#6399FF;}
	.st2{fill:#6399FF;stroke:#6399FF;stroke-width:0.5;stroke-miterlimit:10;}
</style>
<circle id="XMLID_1_" class="st0" cx="50" cy="50" r="43.6"/>
<path id="Page-1" class="st1" d="M155.7,47.1h1.8c-6.6-6.5-17.2-6.3-23.6,0.3c-0.3,0.3-0.8,0.3-1.1,0c-0.3-0.3-0.3-0.8,0-1.1
	c7-7.2,18.5-7.3,25.8-0.4v-1.8c0-0.4,0.3-0.8,0.8-0.8l0,0c0.4,0,0.8,0.3,0.8,0.8v3.7c0,0.4-0.3,0.8-0.8,0.8h-3.7l0,0
	c-0.4,0-0.8-0.3-0.8-0.8C154.9,47.4,155.3,47.1,155.7,47.1L155.7,47.1z M157.8,70.8c-3.1,3.2-7.3,5-11.8,5h-0.2
	c-4.3,0-8.5-1.7-11.6-4.7h1.8c0.4,0,0.8-0.4,0.8-0.8s-0.4-0.8-0.8-0.8l0,0h-3.7c-0.4,0-0.8,0.4-0.8,0.8V74c0,0.4,0.4,0.8,0.8,0.8
	l0,0c0.4,0,0.8-0.4,0.8-0.8v-1.8c3.4,3.3,7.9,5.2,12.7,5.2h0.2c4.9,0,9.5-2,12.9-5.5c0.3-0.3,0.3-0.8,0-1.1
	C158.6,70.5,158.1,70.5,157.8,70.8L157.8,70.8z M131.2,58c-0.2-0.1-0.3-0.3-0.3-0.5v-3.1c0-1.1,0.9-2,2-2h0.7c1.1,0,2,0.9,2,2v3.1
	c0,0.2-0.1,0.4-0.3,0.5c-0.2,0.1-0.4,0.4-0.4,0.6v3c0,0.4,0.2,0.7,0.5,0.8c0.4,0.2,2.4,1.2,4.3,2.8c0.2,0.1,0.3,0.4,0.3,0.6v2.1
	c0,0.4,0.4,0.8,0.8,0.8c0.4,0,0.8-0.4,0.8-0.8v-2.1c0-0.7-0.3-1.3-0.8-1.8c-1.7-1.4-3.4-2.4-4.3-2.8v-2.3c0.4-0.4,0.6-1,0.6-1.5
	v-3.1c0-2-1.6-3.6-3.6-3.6h-0.7c-2,0-3.6,1.6-3.6,3.6v3.1c0,0.6,0.2,1.1,0.6,1.5v2.3c-0.8,0.4-2.6,1.4-4.3,2.7
	c-0.5,0.5-0.8,1.1-0.8,1.8v2.1c0,0.4,0.4,0.8,0.8,0.8c0.4,0,0.8-0.4,0.8-0.8v-2.1c0-0.2,0.1-0.5,0.3-0.6c1.9-1.5,3.9-2.6,4.3-2.8
	c0.3-0.1,0.5-0.5,0.5-0.8v-3C131.6,58.4,131.4,58.2,131.2,58L131.2,58z M166.4,64.1c-1.7-1.4-3.4-2.4-4.3-2.8V59
	c0.4-0.4,0.6-1,0.6-1.5v-3.1c0-2-1.6-3.6-3.6-3.6h-0.7c-2,0-3.6,1.6-3.6,3.6v3.1c0,0.6,0.2,1.1,0.6,1.5v2.3c-0.6,0.4-2.4,1.4-4,2.8
	c-0.6,0.4-0.9,1.1-0.9,1.7v2.1c0,0.5,0.4,0.8,0.8,0.8c0.4,0,0.8-0.4,0.8-0.8v-2.1c0-0.2,0.1-0.5,0.3-0.6c1.9-1.5,3.9-2.6,4.3-2.8
	c0.3-0.1,0.5-0.5,0.5-0.8v-3c0-0.3-0.1-0.5-0.4-0.6c-0.2-0.1-0.3-0.3-0.3-0.5v-3.1c0-1.1,0.9-2,2-2h0.7c1.1,0,2,0.9,2,2v3.1
	c0,0.2-0.1,0.4-0.3,0.5c-0.2,0.1-0.4,0.4-0.4,0.6v3c0,0.4,0.2,0.7,0.5,0.8c0.4,0.2,2.4,1.2,4.3,2.8c0.2,0.1,0.3,0.4,0.3,0.6v2.1
	c0,0.4,0.4,0.8,0.8,0.8c0.4,0,0.8-0.4,0.8-0.8v-2.1C167.3,65.2,167,64.5,166.4,64.1L166.4,64.1z"/>
<g id="XMLID_12_">
	<path id="XMLID_13_" class="st1" d="M53.2,146.3l21.5-0.1l0,30.9h2v-32.8H53.2V146.3z M57.9,139.7v2l21.5-0.1l0,30.9h2v-32.8H57.9z
		 M49.5,177.7l1.2,1.2l2.3-2.3l2.3,2.3l2.3-2.2l2.2,2.2l2.3-2.2l2.2,2.2l2.3-2.3l2.3,2.3l1.3-1.3v-26.7H49.5V177.7z M47.6,148.9H72
		v29.5l-3.2,3.2l-2.3-2.3l-2.3,2.3l-2.2-2.2l-2.3,2.2l-2.2-2.2l-2.3,2.2l-2.3-2.3l-2.3,2.3l-3.1-3.1V148.9z M61.3,167.8
		c0.4-0.4,0.7-1.1,0.4-1.7c-0.3-0.8-1.2-1-2-1.2c-0.8-0.2-1.7-0.5-2.4-1c-2.1-1.5-2-5,0.5-6.1c0.3-0.1,0.5-0.2,0.8-0.2l-0.2-1.7h2.7
		l-0.2,1.8c0.4,0.1,0.9,0.3,1.2,0.5c0.8,0.5,1.2,1.3,1.4,2.2l-2.1,0.4c-0.1-0.3-0.3-0.6-0.5-0.8c-0.3-0.2-0.7-0.3-1.1-0.4
		c-0.7,0-1.6,0.2-1.9,0.9c-0.1,0.4,0,0.8,0.2,1.1c0.3,0.3,0.9,0.5,1.9,0.8c1,0.3,1.8,0.6,2.3,0.9c0.5,0.3,0.9,0.7,1.1,1.3
		c0.8,1.6,0.5,3.9-1,5.1c-0.5,0.4-1,0.6-1.6,0.7l0.2,1.5h-2.7l0.2-1.6c-0.6-0.1-1.1-0.4-1.5-0.7c-0.8-0.7-1.3-1.7-1.5-2.8l2-0.5
		c0.2,1.1,1,1.9,2.2,1.9C60.5,168.3,61,168.1,61.3,167.8L61.3,167.8z"/>
</g>
<g>
	<g>
		<path id="XMLID_32_" class="st2" d="M50.4,41.3v-6.9l1,1l0.6-0.6l-1.7-1.7c-0.2-0.2-0.4-0.2-0.6,0L48,34.8l0.6,0.6l1-1v6.9
			L50.4,41.3L50.4,41.3z"/>
		<path id="XMLID_31_" class="st2" d="M49.6,58.8v6.9l-1-1L48,65.3l1.7,1.7c0.1,0.1,0.2,0.1,0.3,0.1c0.1,0,0.2,0,0.3-0.1l1.7-1.7
			l-0.6-0.6l-1,1v-6.9H49.6z"/>
		<path id="XMLID_30_" class="st2" d="M64.4,41.1l-2.4-0.6l-0.2,0.8l1.4,0.3l-5.9,3.5l0.4,0.7l5.9-3.5l-0.3,1.4l0.8,0.2l0.6-2.4
			c0-0.1,0-0.2,0-0.3C64.6,41.2,64.5,41.1,64.4,41.1z"/>
		<path id="XMLID_29_" class="st2" d="M42.3,54.1l-5.9,3.5l0.3-1.4l-0.8-0.2l-0.6,2.4c-0.1,0.2,0.1,0.5,0.3,0.5l2.4,0.6l0.2-0.8
			l-1.4-0.3l5.9-3.5L42.3,54.1z"/>
		<path id="XMLID_28_" class="st2" d="M38.1,41.3l-0.2-0.8l-2.4,0.6c-0.2,0.1-0.4,0.3-0.3,0.5l0.6,2.4l0.8-0.2l-0.3-1.4l5.9,3.5
			l0.4-0.7l-5.9-3.5L38.1,41.3z"/>
		<path id="XMLID_27_" class="st2" d="M64.1,56.1l-0.8,0.2l0.3,1.4l-5.9-3.5l-0.4,0.7l5.9,3.5l-1.4,0.3l0.2,0.8l2.4-0.6
			c0.1,0,0.2-0.1,0.3-0.2c0.1-0.1,0.1-0.2,0-0.3L64.1,56.1z"/>
		<path class="st2" d="M50,43c-3.9,0-7.1,3.2-7.1,7.1c0,3.9,3.2,7.1,7.1,7.1s7.1-3.2,7.1-7.1C57.1,46.2,53.9,43,50,43z M50,56.4
			c-3.5,0-6.3-2.8-6.3-6.3c0-3.5,2.8-6.3,6.3-6.3s6.3,2.8,6.3,6.3C56.3,53.6,53.5,56.4,50,56.4z"/>
		<path class="st2" d="M31.5,57.3c-1.9,0-3.5,1.6-3.5,3.5s1.6,3.5,3.5,3.5c1.9,0,3.5-1.6,3.5-3.5S33.4,57.3,31.5,57.3z M31.5,63.4
			c-1.5,0-2.7-1.2-2.7-2.7s1.2-2.7,2.7-2.7c1.5,0,2.7,1.2,2.7,2.7S33,63.4,31.5,63.4z"/>
		<path class="st2" d="M68.5,42.3c1.9,0,3.5-1.6,3.5-3.5c0-1.9-1.6-3.5-3.5-3.5S65,36.9,65,38.8C65,40.7,66.6,42.3,68.5,42.3z
			 M68.5,36.2c1.5,0,2.7,1.2,2.7,2.7s-1.2,2.7-2.7,2.7c-1.5,0-2.7-1.2-2.7-2.7C65.8,37.4,67,36.2,68.5,36.2z"/>
		<path class="st2" d="M50,31.5c1.9,0,3.5-1.6,3.5-3.5s-1.6-3.5-3.5-3.5c-1.9,0-3.5,1.6-3.5,3.5C46.5,29.9,48.1,31.5,50,31.5z
			 M50,25.3c1.5,0,2.7,1.2,2.7,2.7s-1.2,2.7-2.7,2.7s-2.7-1.2-2.7-2.7S48.5,25.3,50,25.3z"/>
		<path class="st2" d="M50,68.5c-1.9,0-3.5,1.6-3.5,3.5c0,1.9,1.6,3.5,3.5,3.5c1.9,0,3.5-1.6,3.5-3.5C53.5,70.1,51.9,68.5,50,68.5z
			 M50,74.7c-1.5,0-2.7-1.2-2.7-2.7c0-1.5,1.2-2.7,2.7-2.7c1.5,0,2.7,1.2,2.7,2.7C52.7,73.5,51.5,74.7,50,74.7z"/>
		<path class="st2" d="M68.5,57.3c-1.9,0-3.5,1.6-3.5,3.5s1.6,3.5,3.5,3.5s3.5-1.6,3.5-3.5C72,58.8,70.4,57.3,68.5,57.3z M68.5,63.4
			c-1.5,0-2.7-1.2-2.7-2.7s1.2-2.7,2.7-2.7c1.5,0,2.7,1.2,2.7,2.7S70,63.4,68.5,63.4z"/>
		<path class="st2" d="M31.5,35.3c-1.9,0-3.5,1.6-3.5,3.5s1.6,3.5,3.5,3.5c1.9,0,3.5-1.6,3.5-3.5C35,36.9,33.4,35.3,31.5,35.3z
			 M31.5,41.5c-1.5,0-2.7-1.2-2.7-2.7c0-1.5,1.2-2.7,2.7-2.7c1.5,0,2.7,1.2,2.7,2.7C34.2,40.3,33,41.5,31.5,41.5z"/>
	</g>
</g>
</svg>
