<?xml version="1.0" encoding="utf-8"?>
<!-- Generator: Adobe Illustrator 19.0.0, SVG Export Plug-In . SVG Version: 6.00 Build 0)  -->
<svg version="1.1" id="Layer_1" xmlns="http://www.w3.org/2000/svg" xmlns:xlink="http://www.w3.org/1999/xlink" x="0px" y="0px"
	 viewBox="0 0 100 100" style="enable-background:new 0 0 100 100;" xml:space="preserve">
<style type="text/css">
	.st0{fill:#FFFFFF;}
	.st1{fill:#6399FF;}
	.st2{fill:#6399FF;stroke:#6399FF;stroke-width:0.5;stroke-miterlimit:10;}
</style>
<circle id="XMLID_1_" class="st0" cx="50" cy="50" r="43.6"/>
<path id="Page-1" class="st1" d="M155.7,47.1h1.8c-6.6-6.5-17.2-6.3-23.6,0.3c-0.3,0.3-0.8,0.3-1.1,0c-0.3-0.3-0.3-0.8,0-1.1
	c7-7.2,18.5-7.3,25.8-0.4v-1.8c0-0.4,0.3-0.8,0.8-0.8l0,0c0.4,0,0.8,0.3,0.8,0.8v3.7c0,0.4-0.3,0.8-0.8,0.8h-3.7l0,0
	c-0.4,0-0.8-0.3-0.8-0.8C154.9,47.4,155.3,47.1,155.7,47.1L155.7,47.1z M157.8,70.8c-3.1,3.2-7.3,5-11.8,5h-0.2
	c-4.3,0-8.5-1.7-11.6-4.7h1.8c0.4,0,0.8-0.4,0.8-0.8s-0.4-0.8-0.8-0.8l0,0h-3.7c-0.4,0-0.8,0.4-0.8,0.8V74c0,0.4,0.4,0.8,0.8,0.8
	l0,0c0.4,0,0.8-0.4,0.8-0.8v-1.8c3.4,3.3,7.9,5.2,12.7,5.2h0.2c4.9,0,9.5-2,12.9-5.5c0.3-0.3,0.3-0.8,0-1.1
	C158.6,70.5,158.1,70.5,157.8,70.8L157.8,70.8z M131.2,58c-0.2-0.1-0.3-0.3-0.3-0.5v-3.1c0-1.1,0.9-2,2-2h0.7c1.1,0,2,0.9,2,2v3.1
	c0,0.2-0.1,0.4-0.3,0.5c-0.2,0.1-0.4,0.4-0.4,0.6v3c0,0.4,0.2,0.7,0.5,0.8c0.4,0.2,2.4,1.2,4.3,2.8c0.2,0.1,0.3,0.4,0.3,0.6v2.1
	c0,0.4,0.4,0.8,0.8,0.8c0.4,0,0.8-0.4,0.8-0.8v-2.1c0-0.7-0.3-1.3-0.8-1.8c-1.7-1.4-3.4-2.4-4.3-2.8v-2.3c0.4-0.4,0.6-1,0.6-1.5
	v-3.1c0-2-1.6-3.6-3.6-3.6h-0.7c-2,0-3.6,1.6-3.6,3.6v3.1c0,0.6,0.2,1.1,0.6,1.5v2.3c-0.8,0.4-2.6,1.4-4.3,2.7
	c-0.5,0.5-0.8,1.1-0.8,1.8v2.1c0,0.4,0.4,0.8,0.8,0.8c0.4,0,0.8-0.4,0.8-0.8v-2.1c0-0.2,0.1-0.5,0.3-0.6c1.9-1.5,3.9-2.6,4.3-2.8
	c0.3-0.1,0.5-0.5,0.5-0.8v-3C131.6,58.4,131.4,58.2,131.2,58L131.2,58z M166.4,64.1c-1.7-1.4-3.4-2.4-4.3-2.8V59
	c0.4-0.4,0.6-1,0.6-1.5v-3.1c0-2-1.6-3.6-3.6-3.6h-0.7c-2,0-3.6,1.6-3.6,3.6v3.1c0,0.6,0.2,1.1,0.6,1.5v2.3c-0.6,0.4-2.4,1.4-4,2.8
	c-0.6,0.4-0.9,1.1-0.9,1.7v2.1c0,0.5,0.4,0.8,0.8,0.8c0.4,0,0.8-0.4,0.8-0.8v-2.1c0-0.2,0.1-0.5,0.3-0.6c1.9-1.5,3.9-2.6,4.3-2.8
	c0.3-0.1,0.5-0.5,0.5-0.8v-3c0-0.3-0.1-0.5-0.4-0.6c-0.2-0.1-0.3-0.3-0.3-0.5v-3.1c0-1.1,0.9-2,2-2h0.7c1.1,0,2,0.9,2,2v3.1
	c0,0.2-0.1,0.4-0.3,0.5c-0.2,0.1-0.4,0.4-0.4,0.6v3c0,0.4,0.2,0.7,0.5,0.8c0.4,0.2,2.4,1.2,4.3,2.8c0.2,0.1,0.3,0.4,0.3,0.6v2.1
	c0,0.4,0.4,0.8,0.8,0.8c0.4,0,0.8-0.4,0.8-0.8v-2.1C167.3,65.2,167,64.5,166.4,64.1L166.4,64.1z"/>
<g id="XMLID_12_">
	<path id="XMLID_13_" class="st1" d="M53.2,146.3l21.5-0.1l0,30.9h2v-32.8H53.2V146.3z M57.9,139.7v2l21.5-0.1l0,30.9h2v-32.8H57.9z
		 M49.5,177.7l1.2,1.2l2.3-2.3l2.3,2.3l2.3-2.2l2.2,2.2l2.3-2.2l2.2,2.2l2.3-2.3l2.3,2.3l1.3-1.3v-26.7H49.5V177.7z M47.6,148.9H72
		v29.5l-3.2,3.2l-2.3-2.3l-2.3,2.3l-2.2-2.2l-2.3,2.2l-2.2-2.2l-2.3,2.2l-2.3-2.3l-2.3,2.3l-3.1-3.1V148.9z M61.3,167.8
		c0.4-0.4,0.7-1.1,0.4-1.7c-0.3-0.8-1.2-1-2-1.2c-0.8-0.2-1.7-0.5-2.4-1c-2.1-1.5-2-5,0.5-6.1c0.3-0.1,0.5-0.2,0.8-0.2l-0.2-1.7h2.7
		l-0.2,1.8c0.4,0.1,0.9,0.3,1.2,0.5c0.8,0.5,1.2,1.3,1.4,2.2l-2.1,0.4c-0.1-0.3-0.3-0.6-0.5-0.8c-0.3-0.2-0.7-0.3-1.1-0.4
		c-0.7,0-1.6,0.2-1.9,0.9c-0.1,0.4,0,0.8,0.2,1.1c0.3,0.3,0.9,0.5,1.9,0.8c1,0.3,1.8,0.6,2.3,0.9c0.5,0.3,0.9,0.7,1.1,1.3
		c0.8,1.6,0.5,3.9-1,5.1c-0.5,0.4-1,0.6-1.6,0.7l0.2,1.5h-2.7l0.2-1.6c-0.6-0.1-1.1-0.4-1.5-0.7c-0.8-0.7-1.3-1.7-1.5-2.8l2-0.5
		c0.2,1.1,1,1.9,2.2,1.9C60.5,168.3,61,168.1,61.3,167.8L61.3,167.8z"/>
</g>
<g id="XMLID_34_">
	<g id="XMLID_35_">
		<path id="XMLID_32_" class="st2" d="M200.5,116.7v-6.9l1,1l0.6-0.6l-1.7-1.7c-0.2-0.2-0.4-0.2-0.6,0l-1.7,1.7l0.6,0.6l1-1v6.9
			L200.5,116.7L200.5,116.7z"/>
		<path id="XMLID_31_" class="st2" d="M199.7,134.3v6.9l-1-1l-0.6,0.6l1.7,1.7c0.1,0.1,0.2,0.1,0.3,0.1c0.1,0,0.2,0,0.3-0.1l1.7-1.7
			l-0.6-0.6l-1,1v-6.9H199.7z"/>
		<path id="XMLID_30_" class="st2" d="M214.5,116.6l-2.4-0.6l-0.2,0.8l1.4,0.3l-5.9,3.5l0.4,0.7l5.9-3.5l-0.3,1.4l0.8,0.2l0.6-2.4
			c0-0.1,0-0.2,0-0.3C214.7,116.7,214.6,116.6,214.5,116.6z"/>
		<path id="XMLID_29_" class="st2" d="M192.3,129.6l-5.9,3.5l0.3-1.4l-0.8-0.2l-0.6,2.4c-0.1,0.2,0.1,0.5,0.3,0.5l2.4,0.6l0.2-0.8
			l-1.4-0.3l5.9-3.5L192.3,129.6z"/>
		<path id="XMLID_28_" class="st2" d="M188.2,116.8L188,116l-2.4,0.6c-0.2,0.1-0.4,0.3-0.3,0.5l0.6,2.4l0.8-0.2l-0.3-1.4l5.9,3.5
			l0.4-0.7l-5.9-3.5L188.2,116.8z"/>
		<path id="XMLID_27_" class="st2" d="M214.2,131.6l-0.8,0.2l0.3,1.4l-5.9-3.5l-0.4,0.7l5.9,3.5l-1.4,0.3l0.2,0.8l2.4-0.6
			c0.1,0,0.2-0.1,0.3-0.2c0.1-0.1,0.1-0.2,0-0.3L214.2,131.6z"/>
		<path id="XMLID_54_" class="st2" d="M200.1,118.5c-3.9,0-7.1,3.2-7.1,7.1c0,3.9,3.2,7.1,7.1,7.1s7.1-3.2,7.1-7.1
			C207.2,121.7,204,118.5,200.1,118.5z M200.1,131.9c-3.5,0-6.3-2.8-6.3-6.3c0-3.5,2.8-6.3,6.3-6.3s6.3,2.8,6.3,6.3
			C206.4,129.1,203.5,131.9,200.1,131.9z"/>
		<path id="XMLID_51_" class="st2" d="M181.6,132.7c-1.9,0-3.5,1.6-3.5,3.5s1.6,3.5,3.5,3.5c1.9,0,3.5-1.6,3.5-3.5
			S183.5,132.7,181.6,132.7z M181.6,138.9c-1.5,0-2.7-1.2-2.7-2.7s1.2-2.7,2.7-2.7c1.5,0,2.7,1.2,2.7,2.7S183,138.9,181.6,138.9z"/>
		<path id="XMLID_48_" class="st2" d="M218.6,117.8c1.9,0,3.5-1.6,3.5-3.5s-1.6-3.5-3.5-3.5s-3.5,1.6-3.5,3.5
			S216.6,117.8,218.6,117.8z M218.6,111.6c1.5,0,2.7,1.2,2.7,2.7c0,1.5-1.2,2.7-2.7,2.7c-1.5,0-2.7-1.2-2.7-2.7
			C215.9,112.8,217.1,111.6,218.6,111.6z"/>
		<path id="XMLID_45_" class="st2" d="M200.1,107c1.9,0,3.5-1.6,3.5-3.5s-1.6-3.5-3.5-3.5c-1.9,0-3.5,1.6-3.5,3.5
			C196.6,105.4,198.1,107,200.1,107z M200.1,100.8c1.5,0,2.7,1.2,2.7,2.7s-1.2,2.7-2.7,2.7s-2.7-1.2-2.7-2.7
			S198.6,100.8,200.1,100.8z"/>
		<path id="XMLID_42_" class="st2" d="M200.1,144c-1.9,0-3.5,1.6-3.5,3.5c0,1.9,1.6,3.5,3.5,3.5c1.9,0,3.5-1.6,3.5-3.5
			C203.6,145.5,202,144,200.1,144z M200.1,150.1c-1.5,0-2.7-1.2-2.7-2.7c0-1.5,1.2-2.7,2.7-2.7c1.5,0,2.7,1.2,2.7,2.7
			C202.7,148.9,201.5,150.1,200.1,150.1z"/>
		<path id="XMLID_39_" class="st2" d="M218.6,132.7c-1.9,0-3.5,1.6-3.5,3.5s1.6,3.5,3.5,3.5s3.5-1.6,3.5-3.5
			C222.1,134.3,220.5,132.7,218.6,132.7z M218.6,138.9c-1.5,0-2.7-1.2-2.7-2.7s1.2-2.7,2.7-2.7c1.5,0,2.7,1.2,2.7,2.7
			S220,138.9,218.6,138.9z"/>
		<path id="XMLID_36_" class="st2" d="M181.6,110.8c-1.9,0-3.5,1.6-3.5,3.5s1.6,3.5,3.5,3.5c1.9,0,3.5-1.6,3.5-3.5
			S183.5,110.8,181.6,110.8z M181.6,117c-1.5,0-2.7-1.2-2.7-2.7c0-1.5,1.2-2.7,2.7-2.7c1.5,0,2.7,1.2,2.7,2.7
			C184.2,115.8,183,117,181.6,117z"/>
	</g>
</g>
<g id="XMLID_60_">
	<path id="XMLID_76_" class="st2" d="M67.8,68.2V26.3H32.3v47.3h30.1L67.8,68.2z M62.5,72v-3.6h3.6L62.5,72z M33.3,27.4h33.4v40
		h-5.3v5.3H33.3V27.4z"/>
	<rect id="XMLID_55_" x="53" y="44.5" class="st2" width="1" height="2.4"/>
	<rect id="XMLID_53_" x="55" y="39" class="st2" width="1" height="7.9"/>
	<rect id="XMLID_52_" x="57.1" y="35" class="st2" width="1" height="11.9"/>
	<rect id="XMLID_50_" x="59.2" y="38.7" class="st2" width="1" height="8.2"/>
	<rect id="XMLID_49_" x="61.3" y="42.6" class="st2" width="1" height="4.3"/>
	<rect id="XMLID_47_" x="46.9" y="53.5" class="st2" width="15.4" height="1"/>
	<rect id="XMLID_46_" x="46.9" y="56.1" class="st2" width="15.4" height="1"/>
	<rect id="XMLID_44_" x="46.9" y="61.4" class="st2" width="15.4" height="1"/>
	<rect id="XMLID_43_" x="46.9" y="64" class="st2" width="15.4" height="1"/>
	<path id="XMLID_64_" class="st2" d="M43.1,48c3.7,0,6.8-3,6.8-6.8s-3-6.8-6.8-6.8s-6.8,3-6.8,6.8S39.3,48,43.1,48z M43.1,35.5
		c3.2,0,5.7,2.6,5.7,5.7c0,3.2-2.6,5.7-5.7,5.7c-3.2,0-5.7-2.6-5.7-5.7S39.9,35.5,43.1,35.5z"/>
	<polygon id="XMLID_38_" class="st2" points="47.4,40.8 43.4,40.8 43.4,36.9 42.7,36.9 42.7,41.6 47.4,41.6 	"/>
	<polygon id="XMLID_37_" class="st2" points="40.5,54.3 37.2,54.3 37.2,56.5 40.5,56.5 40.5,58.6 45.2,55.4 40.5,52.2 	"/>
	<polygon id="XMLID_33_" class="st2" points="40.5,62.2 37.2,62.2 37.2,64.3 40.5,64.3 40.5,66.5 45.2,63.2 40.5,60 	"/>
</g>
</svg>
